<svg width="25" height="24" viewBox="0 0 25 24" fill="none" xmlns="http://www.w3.org/2000/svg">
<path fill-rule="evenodd" clip-rule="evenodd" d="M12.2134 0C5.45973 0 0 5.49998 0 12.3042C0 17.7432 3.49823 22.3472 8.35121 23.9767C8.95796 24.0991 9.18021 23.7119 9.18021 23.3862C9.18021 23.1009 9.16021 22.1232 9.16021 21.1044C5.76273 21.8379 5.05523 19.6377 5.05523 19.6377C4.50923 18.2117 3.70023 17.8452 3.70023 17.8452C2.58824 17.0914 3.78123 17.0914 3.78123 17.0914C5.01473 17.1729 5.66198 18.3544 5.66198 18.3544C6.75372 20.2284 8.51296 19.6989 9.22071 19.3729C9.32171 18.5784 9.64546 18.0284 9.98921 17.7229C7.27947 17.4377 4.42848 16.3784 4.42848 11.6522C4.42848 10.3077 4.91348 9.20771 5.68198 8.35222C5.56073 8.04672 5.13598 6.78347 5.80348 5.09273C5.80348 5.09273 6.83472 4.76673 9.15996 6.35572C10.1555 6.08639 11.1821 5.94938 12.2134 5.94823C13.2447 5.94823 14.2959 6.09097 15.2667 6.35572C17.5922 4.76673 18.6234 5.09273 18.6234 5.09273C19.2909 6.78347 18.8659 8.04672 18.7447 8.35222C19.5334 9.20771 19.9984 10.3077 19.9984 11.6522C19.9984 16.3784 17.1474 17.4172 14.4174 17.7229C14.8624 18.1099 15.2464 18.8432 15.2464 20.0044C15.2464 21.6544 15.2264 22.9787 15.2264 23.3859C15.2264 23.7119 15.4489 24.0991 16.0554 23.9769C20.9084 22.3469 24.4066 17.7432 24.4066 12.3042C24.4266 5.49998 18.9469 0 12.2134 0Z" fill="black"/>
</svg>
