<svg width="27" height="27" viewBox="0 0 27 27" fill="none" xmlns="http://www.w3.org/2000/svg">
<path fill-rule="evenodd" clip-rule="evenodd" d="M13.4554 0.111084C6.07636 0.111084 0.111084 6.12034 0.111084 13.5546C0.111084 19.4972 3.93324 24.5275 9.23559 26.3079C9.89852 26.4417 10.1413 26.0186 10.1413 25.6627C10.1413 25.351 10.1195 24.2828 10.1195 23.1697C6.40741 23.9711 5.63441 21.5671 5.63441 21.5671C5.03785 20.0091 4.15395 19.6087 4.15395 19.6087C2.93898 18.7851 4.24245 18.7851 4.24245 18.7851C5.59016 18.8742 6.29734 20.1651 6.29734 20.1651C7.49017 22.2126 9.41231 21.634 10.1856 21.2779C10.2959 20.4098 10.6497 19.8089 11.0253 19.4751C8.0646 19.1634 4.94963 18.0061 4.94963 12.8422C4.94963 11.3732 5.47953 10.1714 6.31919 9.23668C6.18671 8.9029 5.72263 7.52268 6.45194 5.67538C6.45194 5.67538 7.57867 5.3192 10.1192 7.05532C11.2069 6.76105 12.3286 6.61135 13.4554 6.61009C14.5822 6.61009 15.7308 6.76606 16.7914 7.05532C19.3322 5.3192 20.459 5.67538 20.459 5.67538C21.1883 7.52268 20.7239 8.9029 20.5914 9.23668C21.4532 10.1714 21.9613 11.3732 21.9613 12.8422C21.9613 18.0061 18.8463 19.141 15.8635 19.4751C16.3497 19.8979 16.7693 20.6991 16.7693 21.9678C16.7693 23.7706 16.7474 25.2175 16.7474 25.6624C16.7474 26.0186 16.9905 26.4417 17.6532 26.3082C22.9555 24.5272 26.7777 19.4972 26.7777 13.5546C26.7995 6.12034 20.8124 0.111084 13.4554 0.111084Z" fill="#FFE199"/>
</svg>
