<svg width="151" height="151" viewBox="0 0 151 151" fill="none" xmlns="http://www.w3.org/2000/svg">
<path d="M141.097 76.7239C141.097 71.8489 140.659 67.1614 139.847 62.6614H75.0968V89.2551H112.097C110.503 97.8489 105.659 105.13 98.3781 110.005V127.255H120.597C133.597 115.286 141.097 97.6614 141.097 76.7239Z" fill="#4285F4"/>
<path d="M75.0968 143.911C93.6593 143.911 109.222 137.755 120.597 127.255L98.3781 110.005C92.2218 114.13 84.3468 116.568 75.0968 116.568C57.1906 116.568 42.0343 104.474 36.628 88.2239H13.6593V106.036C24.9718 128.505 48.2218 143.911 75.0968 143.911Z" fill="#34A853"/>
<path d="M36.6281 88.2239C35.2531 84.0989 34.4718 79.6926 34.4718 75.1614C34.4718 70.6301 35.2531 66.2239 36.6281 62.0989V44.2864H13.6593C8.8468 53.8667 6.34256 64.4402 6.34681 75.1614C6.34681 86.2551 9.00306 96.7551 13.6593 106.036L36.6281 88.2239Z" fill="#FBBC05"/>
<path d="M75.0968 33.7551C85.1906 33.7551 94.2531 37.2239 101.378 44.0364L121.097 24.3176C109.191 13.2239 93.6281 6.41138 75.0968 6.41138C48.2218 6.41138 24.9718 21.8176 13.6593 44.2864L36.628 62.0989C42.0343 45.8489 57.1906 33.7551 75.0968 33.7551Z" fill="#EA4335"/>
</svg>
