<svg width="27" height="24" viewBox="0 0 27 24" fill="none" xmlns="http://www.w3.org/2000/svg">
<g clip-path="url(#clip0_29_100)">
<path d="M20.2124 20.023H16.8714V14.8424C16.8714 13.607 16.8492 12.0168 15.1338 12.0168C13.3937 12.0168 13.1274 13.3627 13.1274 14.7525V20.0227H9.78644V9.36925H12.9938V10.8252H13.0387C13.3597 10.2817 13.8235 9.83471 14.3808 9.53167C14.938 9.22862 15.5679 9.08091 16.2032 9.10426C19.5895 9.10426 20.2138 11.3096 20.2138 14.1787L20.2124 20.023ZM6.0167 7.913C5.63323 7.91307 5.25836 7.80055 4.93948 7.58967C4.6206 7.37878 4.37207 7.079 4.22526 6.72825C4.07845 6.37749 4.03998 5.9915 4.11472 5.6191C4.18946 5.2467 4.37406 4.9046 4.64516 4.63608C4.91626 4.36755 5.26169 4.18465 5.63777 4.11051C6.01385 4.03637 6.40368 4.07432 6.75798 4.21956C7.11228 4.36479 7.41512 4.6108 7.62822 4.92645C7.84132 5.24211 7.9551 5.61325 7.95517 5.99294C7.95522 6.24504 7.9051 6.49468 7.80771 6.72761C7.71032 6.96054 7.56756 7.17219 7.38756 7.35049C7.20755 7.52878 6.99383 7.67022 6.75862 7.76674C6.52341 7.86326 6.27131 7.91296 6.0167 7.913ZM7.68719 20.023H4.34272V9.36925H7.68719V20.023ZM21.878 1.00152H2.66388C2.22778 0.996648 1.80754 1.16341 1.49554 1.46516C1.18355 1.76691 1.00532 2.17896 1 2.61077V21.7146C1.00514 22.1466 1.18326 22.559 1.49524 22.861C1.80723 23.1631 2.22756 23.3302 2.66388 23.3256H21.878C22.3152 23.331 22.7367 23.1644 23.05 22.8623C23.3632 22.5603 23.5425 22.1475 23.5485 21.7146V2.60939C23.5423 2.17672 23.3629 1.7642 23.0496 1.46246C22.7364 1.16072 22.315 0.994436 21.878 1.00014" fill="#FFE199"/>
</g>
<defs>
<clipPath id="clip0_29_100">
<rect width="26.6667" height="22.5108" fill="white" transform="translate(0 0.777832)"/>
</clipPath>
</defs>
</svg>
