<svg width="23" height="23" viewBox="0 0 23 23" fill="none" xmlns="http://www.w3.org/2000/svg">
<path d="M19.2124 19.023H15.8714V13.8424C15.8714 12.607 15.8492 11.0168 14.1338 11.0168C12.3937 11.0168 12.1274 12.3627 12.1274 13.7525V19.0227H8.78644V8.36925H11.9938V9.82515H12.0387C12.3597 9.28174 12.8235 8.83471 13.3808 8.53167C13.938 8.22862 14.5679 8.08091 15.2032 8.10426C18.5895 8.10426 19.2138 10.3096 19.2138 13.1787L19.2124 19.023ZM5.0167 6.913C4.63323 6.91307 4.25836 6.80055 3.93948 6.58967C3.6206 6.37878 3.37207 6.079 3.22526 5.72825C3.07845 5.37749 3.03998 4.9915 3.11472 4.6191C3.18946 4.2467 3.37406 3.9046 3.64516 3.63608C3.91626 3.36755 4.26169 3.18465 4.63777 3.11051C5.01385 3.03637 5.40368 3.07432 5.75798 3.21956C6.11228 3.36479 6.41512 3.61079 6.62822 3.92645C6.84132 4.24211 6.9551 4.61325 6.95517 4.99294C6.95522 5.24504 6.9051 5.49468 6.80771 5.72761C6.71032 5.96054 6.56756 6.17219 6.38756 6.35049C6.20755 6.52878 5.99383 6.67022 5.75862 6.76674C5.52341 6.86326 5.27131 6.91296 5.0167 6.913ZM6.68719 19.023H3.34272V8.36925H6.68719V19.023ZM20.878 0.00152109H1.66388C1.22778 -0.00335191 0.807536 0.163409 0.495542 0.465158C0.183547 0.766908 0.00532245 1.17896 0 1.61077V20.7146C0.00514028 21.1466 0.18326 21.559 0.495244 21.861C0.807228 22.1631 1.22756 22.3302 1.66388 22.3256H20.878C21.3152 22.331 21.7367 22.1644 22.05 21.8623C22.3632 21.5603 22.5425 21.1475 22.5485 20.7146V1.60939C22.5423 1.17672 22.3629 0.764204 22.0496 0.462462C21.7364 0.16072 21.315 -0.00556415 20.878 0.000142161" fill="#FFE199"/>
</svg>
