<svg width="21" height="20" viewBox="0 0 21 20" fill="none" xmlns="http://www.w3.org/2000/svg">
<path d="M17.3109 17.0413H14.3006V12.4004C14.3006 11.2937 14.2805 9.86912 12.7349 9.86912C11.167 9.86912 10.9271 11.0749 10.9271 12.3199V17.041H7.91681V7.49741H10.8067V8.80165H10.8472C11.1364 8.31485 11.5543 7.91439 12.0564 7.64291C12.5585 7.37143 13.1261 7.23911 13.6985 7.26003C16.7496 7.26003 17.3122 9.23567 17.3122 11.8059L17.3109 17.0413ZM4.52018 6.19287C4.17467 6.19293 3.83689 6.09213 3.54958 5.90321C3.26226 5.71429 3.03832 5.44574 2.90604 5.13153C2.77377 4.81731 2.7391 4.47153 2.80644 4.13792C2.87379 3.80431 3.04012 3.49785 3.28438 3.2573C3.52865 3.01675 3.8399 2.8529 4.17876 2.78649C4.51761 2.72007 4.86886 2.75406 5.18809 2.88417C5.50733 3.01428 5.7802 3.23465 5.9722 3.51743C6.16421 3.8002 6.26673 4.13268 6.26679 4.47282C6.26683 4.69866 6.22168 4.92229 6.13393 5.13095C6.04618 5.33962 5.91755 5.52922 5.75536 5.68895C5.59317 5.84867 5.4006 5.97538 5.18867 6.06184C4.97674 6.1483 4.74959 6.19282 4.52018 6.19287ZM6.02533 17.0413H3.01188V7.49741H6.02533V17.0413ZM18.8117 0.00136263H1.4992C1.10626 -0.00300274 0.727611 0.146386 0.446496 0.416702C0.165381 0.687018 0.00479567 1.05614 0 1.44297V18.5567C0.00463153 18.9438 0.165122 19.3131 0.446228 19.5837C0.727334 19.8543 1.10607 20.004 1.4992 19.9999H18.8117C19.2056 20.0047 19.5854 19.8555 19.8676 19.5849C20.1498 19.3143 20.3114 18.9445 20.3168 18.5567V1.44174C20.3112 1.05414 20.1495 0.684596 19.8673 0.414287C19.5851 0.143978 19.2054 -0.00498453 18.8117 0.000127351" fill="#4D4D4D"/>
</svg>
