<svg width="1280" height="832" viewBox="0 0 1280 832" fill="none" xmlns="http://www.w3.org/2000/svg">
<path fill-rule="evenodd" clip-rule="evenodd" d="M85.5185 831.515H-52.5151V693.482H71.2182L85.5185 707.782V831.515ZM100.2 693.482L86.0843 707.597V831.515H224.118V693.482H100.2ZM86.0843 679.01L99.9899 692.916H224.118V554.882H86.0843V679.01ZM71.4285 692.916L85.5185 678.826V554.882H-52.5151V692.916H71.4285ZM-53 832V693.401V692.997V554.802V554.397V416.202V415.798V277.603V277.199V139.003V138.599V0H85.5994H86.0034H224.198H224.603H362.798H363.202H501.397H501.801H639.996H640.401H778.596H779H917.195H917.599H1055.79H1056.2H1194.39H1194.8H1333.4L1333.4 138.599V277.199V277.603V416.202V554.397V692.997V693.401V832H1194.8H1194.39H1056.2H1055.79H917.599H917.195H779H778.596H640.401H639.996H501.801H501.397H363.202H362.798H224.603H224.198H86.0034H85.5994H-53ZM224.683 831.515H362.717V693.482H224.683V831.515ZM501.316 831.515H363.283V693.482H501.316V831.515ZM501.882 831.515H639.916V693.482H501.882V831.515ZM778.515 831.515H640.481V693.482H778.515V831.515ZM779.081 831.515H917.114V693.482H779.081V831.515ZM1055.71 831.515H917.68V693.482H1055.71V831.515ZM1056.28 831.515H1194.31V693.482H1056.28V831.515ZM1332.91 831.515H1194.88V693.482H1332.91V831.515ZM224.683 692.916H362.717V554.882H224.683V692.916ZM501.316 692.916H363.283V554.882H487.432L501.316 568.766V692.916ZM515.544 554.882L501.882 568.544V692.916H639.916V554.882H515.544ZM501.882 539.995L516.157 554.269L516.11 554.317H639.916V416.283H501.882V539.995ZM486.867 554.317L486.819 554.269L501.316 539.772V416.283H363.283V554.317H486.867ZM778.515 692.916H640.481V554.882H778.515V692.916ZM779.081 692.916H917.114V554.882H779.081V692.916ZM1055.71 692.916H917.68V554.882H1055.71V692.916ZM1056.28 692.916H1194.31V593.177L1194.08 592.943L1156.02 554.882H1056.28V692.916ZM1155.45 554.317H1056.28V429.882L1056.74 430.345L1070.8 416.283H1194.31V515.361L1194.08 515.596L1155.78 553.895L1155.4 554.269L1155.45 554.317ZM1194.31 516.11L1156.15 554.269L1156.2 554.317H1179.83L1179.78 554.269L1194.31 539.741V516.11ZM1194.88 515.647V416.283H1332.91V554.317H1233.45L1233.5 554.269L1233.13 553.895L1194.88 515.647ZM1232.7 554.317L1232.75 554.269L1194.88 516.396V540.026L1209.12 554.269L1209.07 554.317H1232.7ZM1232.89 554.882H1332.91V692.916H1194.88V592.891L1232.89 554.882ZM1194.88 592.142L1232.14 554.882H1208.51L1194.88 568.512V592.142ZM1194.31 592.428L1156.77 554.882H1180.4L1194.31 568.798V592.428ZM1056.28 401.472L1056.74 401.008L1071.41 415.676L1071.37 415.717H1194.31V277.684H1056.28V401.472ZM1042.11 415.717L1042.07 415.676L1055.71 402.037V277.684H917.68V415.717H1042.11ZM1055.71 429.316L1042.68 416.283H917.68V554.317H1055.71V429.316ZM-52.5151 554.317H85.5185V416.283H-52.5151V554.317ZM224.118 554.317H86.0843V416.283H224.118V554.317ZM224.683 554.317H362.717V416.283H224.683V554.317ZM778.515 554.317H640.482V416.283H778.515V554.317ZM779.081 554.317H917.114V416.283H779.081V554.317ZM-52.5151 415.717H85.5185V277.684H-52.5151V415.717ZM224.118 415.717H86.0843V277.684H185.978L185.799 277.863L186.173 278.238L224.118 316.182V415.717ZM224.118 315.433L186.548 277.863L186.727 277.684H210.358L210.178 277.863L224.118 291.803V315.433ZM224.683 292.368V315.999L224.847 316.162L263.146 277.863L262.966 277.684H239.336L239.516 277.863L224.847 292.532L224.683 292.368ZM224.683 263.358L224.847 263.194L238.77 277.118H262.4L224.847 239.564L224.683 239.728V263.358ZM210.924 277.118L224.118 263.924V240.293L187.293 277.118H210.924ZM186.544 277.118H86.0843V139.084H224.118V239.544L186.544 277.118ZM224.683 238.979V139.084H362.717V277.118H263.149L225.221 239.19L224.847 238.815L224.683 238.979ZM263.715 277.684H362.717V415.717H224.683V316.748L224.847 316.911L225.221 316.537L263.52 278.238L263.895 277.863L263.715 277.684ZM501.316 415.717H363.283V277.684H501.316V415.717ZM501.882 415.717H639.916V277.684H501.882V415.717ZM778.515 415.717H640.481V277.684H778.515V415.717ZM779.081 415.717H917.114V277.684H779.081V415.717ZM1332.91 415.717H1194.88V277.684H1332.91V415.717ZM-52.5151 277.118H85.5185V139.084H-52.5151V277.118ZM501.316 277.118H363.283V139.084H501.316V277.118ZM501.882 277.118H639.916V139.084H501.882V277.118ZM778.515 277.118H640.481V139.084H778.515V277.118ZM779.081 277.118H917.114V139.084H779.081V277.118ZM1055.71 277.118H917.68V139.084H1055.71V277.118ZM1056.28 277.118H1194.31V139.084H1056.28V277.118ZM1332.91 277.118H1194.88V139.084H1332.91V277.118ZM-52.5151 138.518H85.5185V0.484924H-52.5151V138.518ZM224.118 138.518H86.0843V0.484924H224.118V138.518ZM224.683 138.518H362.717V0.484924H224.683V138.518ZM501.316 138.518H363.283V0.484924H501.316V138.518ZM501.882 138.518H639.916V0.484924H501.882V138.518ZM778.515 138.518H640.481V0.484924H778.515V138.518ZM779.081 138.518H917.114V0.484924H779.081V138.518ZM1055.71 138.518H917.68V0.484924H1055.71V138.518ZM1056.28 138.518H1194.31V0.484924H1056.28V138.518ZM1332.91 138.518H1194.88V0.484924H1332.91V138.518Z" fill="url(#paint0_radial_57_7)" fill-opacity="0.6"/>
<defs>
<radialGradient id="paint0_radial_57_7" cx="0" cy="0" r="1" gradientUnits="userSpaceOnUse" gradientTransform="translate(640.199 1298.98) rotate(-90) scale(1194.15 1989.86)">
<stop stop-color="white"/>
<stop offset="1" stop-color="white" stop-opacity="0"/>
</radialGradient>
</defs>
</svg>
