<svg width="1280" height="349" viewBox="0 0 1280 349" fill="none" xmlns="http://www.w3.org/2000/svg">
<g filter="url(#filter0_i_14_3)">
<rect x="540" y="112" width="200" height="200" rx="18" fill="#1E1F1E"/>
</g>
<path d="M623.104 219H570V205H623.097L595.099 177L604.998 167.1L633 195.104V142H647V195.103L675.001 167.1L684.901 177L656.902 205H710V219H656.895L684.901 247.007L675.001 256.907L647 228.904V282H633V228.903L604.998 256.907L595.099 247.007L623.104 219Z" fill="#FFFAED"/>
<mask id="mask0_14_3" style="mask-type:alpha" maskUnits="userSpaceOnUse" x="0" y="0" width="497" height="349">
<rect width="497" height="349" fill="#D9D9D9"/>
</mask>
<g mask="url(#mask0_14_3)">
<path opacity="0.5" fill-rule="evenodd" clip-rule="evenodd" d="M-301 -321.907C-301.002 -321.911 -301.004 -321.914 -300.099 -322.459C-299.194 -323.005 -299.193 -323.004 -299.191 -322.999L-299.18 -322.982L-299.138 -322.914C-299.101 -322.851 -299.045 -322.758 -298.969 -322.636C-298.819 -322.389 -298.592 -322.021 -298.291 -321.534C-297.687 -320.56 -296.783 -319.113 -295.58 -317.224C-293.175 -313.448 -289.576 -307.907 -284.806 -300.851C-275.268 -286.741 -261.048 -266.578 -242.333 -242.379C-204.9 -193.98 -149.488 -129.45 -77.5717 -64.92C66.271 64.1476 276.053 193.135 539.993 193.135V195.248C275.335 195.248 65.0706 65.9099 -78.9834 -63.3479C-151.015 -127.981 -206.513 -192.612 -244.004 -241.086C-262.751 -265.324 -276.996 -285.524 -286.557 -299.668C-291.338 -306.74 -294.947 -312.298 -297.363 -316.09C-298.571 -317.985 -299.48 -319.44 -300.087 -320.421C-300.391 -320.912 -300.62 -321.283 -300.773 -321.534C-300.849 -321.66 -300.907 -321.754 -300.945 -321.817L-300.989 -321.889L-301 -321.907ZM-300.899 -166.457C-300.902 -166.46 -300.903 -166.461 -300.099 -167.147C-299.294 -167.832 -299.294 -167.831 -299.291 -167.829L-299.281 -167.817L-299.24 -167.768L-299.166 -167.683L-299.071 -167.573C-299.007 -167.498 -298.929 -167.408 -298.837 -167.302L-298.69 -167.133C-298.601 -167.031 -298.502 -166.918 -298.394 -166.794C-297.792 -166.106 -296.888 -165.084 -295.686 -163.748C-293.282 -161.078 -289.685 -157.159 -284.918 -152.168C-275.383 -142.188 -261.167 -127.925 -242.455 -110.807C-205.031 -76.5695 -149.624 -30.913 -77.7111 14.7435C66.1167 106.058 275.945 197.361 539.993 197.361V199.474C275.442 199.474 65.2248 107.995 -78.8439 16.527C-150.878 -29.2067 -206.383 -74.9424 -243.882 -109.248C-262.632 -126.401 -276.881 -140.698 -286.446 -150.709C-291.228 -155.715 -294.84 -159.65 -297.257 -162.335C-298.466 -163.677 -299.376 -164.708 -299.984 -165.403C-300.289 -165.75 -300.518 -166.015 -300.671 -166.192C-300.747 -166.281 -300.805 -166.347 -300.844 -166.393L-300.888 -166.443L-300.899 -166.457ZM-300.099 -59.3795C-300.779 -58.5712 -300.778 -58.5691 -300.775 -58.567L-300.764 -58.5575L-300.719 -58.5205L-300.605 -58.4254L-300.546 -58.3768C-300.392 -58.249 -300.163 -58.0599 -299.859 -57.8105C-299.249 -57.3118 -298.339 -56.5733 -297.13 -55.6097C-294.712 -53.6847 -291.099 -50.8637 -286.316 -47.2757C-276.75 -40.0986 -262.499 -29.8501 -243.748 -17.5551C-206.247 7.03602 -150.744 39.8164 -78.715 72.5936C65.3442 138.15 275.516 203.7 539.993 203.7V201.587C275.871 201.587 65.9973 136.126 -77.839 70.6707C-149.758 37.9432 -205.166 5.21666 -242.589 -19.3216C-261.3 -31.5913 -275.515 -41.8134 -285.048 -48.9651C-289.814 -52.5415 -293.41 -55.3498 -295.813 -57.2632C-297.015 -58.2194 -297.918 -58.9526 -298.52 -59.445C-298.649 -59.5506 -298.764 -59.6457 -298.865 -59.7292C-299 -59.8401 -299.11 -59.931 -299.196 -60.0028C-299.271 -60.0641 -299.327 -60.1117 -299.364 -60.1423L-299.406 -60.1772L-299.416 -60.1856C-299.416 -60.1856 -299.417 -60.1867 -299.438 -60.1624C-299.448 -60.1508 -299.462 -60.1339 -299.484 -60.1085C-299.523 -60.062 -299.586 -59.9881 -299.687 -59.8687L-300.099 -59.3795ZM-300.551 58.8522C-300.551 58.8522 -300.551 58.8522 -300.551 58.8501C-300.55 58.848 -300.548 58.8437 -300.544 58.8342C-300.537 58.8163 -300.52 58.7803 -300.485 58.7064C-300.425 58.5796 -300.312 58.3419 -300.099 57.8971C-299.893 57.466 -299.78 57.2304 -299.717 57.1015C-299.688 57.0413 -299.67 57.0043 -299.659 56.981C-299.648 56.9589 -299.644 56.9504 -299.642 56.9473C-299.64 56.9451 -299.64 56.9451 -299.64 56.9451L-299.63 56.9504L-299.588 56.9705L-299.42 57.0497C-299.27 57.1205 -299.044 57.2262 -298.743 57.3667C-298.141 57.6467 -297.237 58.064 -296.036 58.6081C-293.632 59.6953 -290.035 61.2928 -285.267 63.3267C-275.732 67.3944 -261.514 73.2075 -242.799 80.1838C-205.369 94.1387 -149.948 112.749 -78.0123 131.361C65.8599 168.584 275.793 205.813 539.993 205.813V207.927C275.594 207.927 65.4816 170.67 -78.5417 133.406C-150.554 114.775 -206.044 96.1419 -243.538 82.1638C-262.285 75.1748 -276.532 69.35 -286.097 65.2707C-290.879 63.2305 -294.49 61.6267 -296.907 60.5332C-298.116 59.9859 -299.026 59.5654 -299.635 59.2822C-299.94 59.1406 -300.169 59.0329 -300.322 58.961L-300.495 58.8786L-300.539 58.8575L-300.551 58.8522ZM-300.099 151.93C-300.242 152.685 -300.281 152.891 -300.29 152.947C-300.293 152.968 -300.292 152.968 -300.292 152.968L-300.281 152.97L-300.238 152.979L-300.066 153.012C-299.913 153.04 -299.685 153.082 -299.381 153.138L-299.097 153.191L-298.747 153.256C-298.553 153.29 -298.342 153.33 -298.112 153.371C-297.689 153.448 -297.204 153.536 -296.659 153.634C-294.245 154.068 -290.637 154.704 -285.858 155.513C-276.302 157.133 -262.062 159.445 -243.323 162.219C-205.847 167.768 -150.375 175.166 -78.3853 182.564C65.5958 197.359 275.654 212.153 539.993 212.153V210.04C275.733 210.04 65.7468 195.25 -78.1687 180.462C-150.127 173.068 -205.567 165.674 -243.014 160.129C-261.737 157.357 -275.963 155.048 -285.505 153.43C-290.277 152.622 -293.878 151.987 -296.285 151.555C-297.488 151.338 -298.393 151.172 -298.997 151.06C-299.299 151.005 -299.525 150.963 -299.676 150.934L-299.846 150.903L-299.888 150.894L-299.898 150.892C-299.898 150.892 -299.899 150.892 -299.904 150.912C-299.908 150.932 -299.916 150.97 -299.93 151.045L-299.962 151.212C-299.992 151.365 -300.035 151.594 -300.099 151.93ZM-300.087 208.983C-300.09 208.983 -300.091 208.983 -300.099 210.04C-300.107 211.096 -300.106 211.096 -300.103 211.096H-300.093H-300.075L-300.05 211.097H-300.018H-299.979H-299.932L-299.879 211.098H-299.819L-299.751 211.099H-299.676L-299.595 211.1H-299.506L-299.41 211.101L-299.307 211.103L-299.197 211.104H-299.08L-298.956 211.105L-298.825 211.106L-298.687 211.107L-298.541 211.108L-298.389 211.109L-298.23 211.111L-298.063 211.112L-297.89 211.113L-297.709 211.114L-297.522 211.116L-297.327 211.117L-297.126 211.118L-296.918 211.121L-296.702 211.122L-296.48 211.124L-296.25 211.126L-296.014 211.127L-295.77 211.129L-295.52 211.131L-295.262 211.133L-294.998 211.135L-294.727 211.137L-294.448 211.139L-294.163 211.142L-293.871 211.144L-293.571 211.146L-293.265 211.148L-292.952 211.15L-292.632 211.152L-292.305 211.155L-291.971 211.157L-291.631 211.161L-291.283 211.163L-290.928 211.166L-290.567 211.168L-290.198 211.171L-289.823 211.174L-289.44 211.176L-289.051 211.18L-288.655 211.183L-288.252 211.186L-287.842 211.189L-287.426 211.192L-287.002 211.195L-286.571 211.199L-286.134 211.202L-285.69 211.205L-285.239 211.208L-284.781 211.212L-284.316 211.216L-283.844 211.219L-283.366 211.223L-282.881 211.226L-282.389 211.23L-281.89 211.234L-281.384 211.238L-280.871 211.242L-280.352 211.245L-279.825 211.249L-279.292 211.254L-278.753 211.258L-278.206 211.262L-277.652 211.265L-277.092 211.269L-276.525 211.275L-275.951 211.279L-275.371 211.283L-274.783 211.287L-274.189 211.292L-273.588 211.297L-272.981 211.301L-272.366 211.305L-271.745 211.311L-271.117 211.315L-270.482 211.32L-269.841 211.324L-269.193 211.33L-268.538 211.335L-267.876 211.339L-267.208 211.344L-266.533 211.35L-265.851 211.355L-265.162 211.36L-264.467 211.366L-263.765 211.371L-263.057 211.376L-262.341 211.381L-261.619 211.387L-260.891 211.392L-260.155 211.397L-259.413 211.404L-258.665 211.409L-257.909 211.415L-257.147 211.421L-256.378 211.426L-255.603 211.432L-254.821 211.439L-254.032 211.444L-253.237 211.45L-252.435 211.456L-251.626 211.462L-250.811 211.468L-249.989 211.474L-249.161 211.481L-248.326 211.487L-247.484 211.493L-246.636 211.5L-245.781 211.506L-244.919 211.512L-244.051 211.519L-243.177 211.526L-242.295 211.533L-241.407 211.539L-240.513 211.546L-239.612 211.553L-238.704 211.56L-237.79 211.566L-236.869 211.574L-235.942 211.58L-235.008 211.587L-234.068 211.595L-233.121 211.602L-232.167 211.609L-231.207 211.616L-230.241 211.623L-229.267 211.631L-228.288 211.638L-227.302 211.646L-226.309 211.653L-225.31 211.66L-224.304 211.669L-223.292 211.676L-222.273 211.684L-221.248 211.691L-220.216 211.699L-219.178 211.707L-218.133 211.715L-217.082 211.723L-216.025 211.731L-214.96 211.739L-213.89 211.747L-212.813 211.755L-211.729 211.763L-210.639 211.771L-209.543 211.78L-208.44 211.788L-207.331 211.797L-206.215 211.805L-205.093 211.814L-203.965 211.822L-202.83 211.83L-201.688 211.839L-200.54 211.847L-199.386 211.856L-198.225 211.865L-197.058 211.874L-195.885 211.882L-194.705 211.892L-193.519 211.9L-192.326 211.91L-191.127 211.918L-189.922 211.928L-188.71 211.937L-187.492 211.946L-186.267 211.955L-185.037 211.965L-183.799 211.974L-182.556 211.984L-181.305 211.993L-180.049 212.003L-178.786 212.012L-177.518 212.022L-176.243 212.031L-174.961 212.041L-173.673 212.05L-172.378 212.06L-171.079 212.07L-169.771 212.08L-168.458 212.089L-167.138 212.1L-165.813 212.109L-164.48 212.12L-163.143 212.129L-161.797 212.14L-160.447 212.151L-159.089 212.16L-157.726 212.171L-156.356 212.181L-154.981 212.192L-153.598 212.202L-152.21 212.212L-150.815 212.222L-149.414 212.233L-148.006 212.244L-146.593 212.255L-145.173 212.266L-143.748 212.276L-142.315 212.287L-140.876 212.297L-139.432 212.309L-137.981 212.32L-136.524 212.33L-135.06 212.342L-133.591 212.352L-132.115 212.364L-130.634 212.376L-129.146 212.386L-127.652 212.398L-126.151 212.409L-124.644 212.42L-123.131 212.432L-121.613 212.443L-120.088 212.455L-118.556 212.467L-117.019 212.478L-115.475 212.49L-113.926 212.501L-112.369 212.513L-110.808 212.525L-109.239 212.536L-107.665 212.549L-106.085 212.561L-104.498 212.572L-102.905 212.585L-101.307 212.596L-99.7025 212.608L-98.091 212.621L-96.4742 212.632L-94.8511 212.645L-93.2217 212.658L-91.5869 212.669L-89.9448 212.682L-88.2973 212.695L-86.6436 212.707L-84.9845 212.72L-83.3191 212.732L-81.6474 212.744L-79.9693 212.757L-78.2849 212.77L-76.5952 212.782L-74.8992 212.796L-73.1968 212.809L-71.4892 212.822L-69.7752 212.834L-68.0548 212.847L-66.3292 212.861L-64.5973 212.873L-62.859 212.887L-61.1143 212.9L-59.3644 212.913L-57.6081 212.926L-55.8455 212.94L-54.0776 212.953L-52.3034 212.966L-50.5239 212.98L-48.737 212.993L-46.9458 213.006L-45.1473 213.02L-43.3435 213.034L-41.5333 213.048L-39.7168 213.061L-37.895 213.075L-36.0669 213.089L-34.2335 213.103L-32.3938 213.116L-30.5477 213.13L-28.6963 213.145L-26.8386 213.159L-24.9756 213.172L-23.1063 213.186L-21.2306 213.201L-19.3496 213.215L-17.4623 213.229L-15.5687 213.243L-13.6698 213.258L-11.7656 213.272L-9.85397 213.286L-7.93812 213.301L-6.01489 213.316L-4.08639 213.33L-2.15258 213.345L-0.212447 213.359L1.73401 213.374L3.68578 213.389L5.64388 213.404L7.60726 213.418L9.57697 213.433L11.552 213.448L13.5333 213.463L15.52 213.478L17.5129 213.494L19.5112 213.508L21.5158 213.523L23.5267 213.539L25.5429 213.554L27.5644 213.569L29.5923 213.584L31.6254 213.599L33.6649 213.615L35.7107 213.631L37.7607 213.646L39.8181 213.661L41.8809 213.677L43.9489 213.692L46.0232 213.708L48.1028 213.724L50.1888 213.74L52.28 213.756L54.3766 213.771L56.4794 213.787L58.5886 213.803L60.7031 213.819L62.8229 213.835L64.949 213.851L67.0804 213.867L69.2171 213.883L71.3601 213.899L73.5095 213.916L75.6642 213.932L77.8241 213.948L79.9903 213.965L82.1619 213.981L84.3388 213.997L86.5219 214.013L88.7104 214.03L90.9052 214.047L93.1053 214.063L95.3107 214.08L97.5224 214.097L99.7394 214.114L101.962 214.131L104.19 214.147L106.424 214.164L108.664 214.181L110.91 214.198L113.161 214.215L115.417 214.232L117.679 214.249L119.947 214.266L122.221 214.283L124.5 214.301L126.785 214.318L129.075 214.335L131.371 214.352L133.673 214.369L135.98 214.387L138.293 214.404L140.611 214.422L142.935 214.439L145.265 214.457L147.6 214.475L149.941 214.492L152.287 214.51L154.639 214.528L156.997 214.546L159.359 214.564L161.728 214.582L164.102 214.6L166.482 214.618L168.867 214.636L171.258 214.654L173.654 214.672L176.056 214.69L178.463 214.707L180.876 214.725L183.294 214.744L185.718 214.762L188.148 214.78L190.582 214.799L193.023 214.817L195.469 214.836L197.92 214.854L200.377 214.873L202.839 214.891L205.308 214.91L207.78 214.929L210.259 214.947L212.744 214.966L215.233 214.985L217.728 215.004L220.229 215.022L222.735 215.041L225.247 215.06L227.764 215.079L230.286 215.098L232.814 215.117L235.347 215.136L237.885 215.155L240.43 215.176L242.98 215.195L245.535 215.214L248.094 215.233L250.661 215.253L253.232 215.272L255.808 215.292L258.39 215.311L260.978 215.33L263.57 215.35L266.168 215.369L268.772 215.389L271.38 215.409L273.994 215.428L276.614 215.448L279.239 215.468L281.869 215.488L284.504 215.507L287.146 215.527L289.792 215.547L292.444 215.567L295.101 215.588L297.763 215.608L300.43 215.628L303.104 215.648L305.781 215.668L308.466 215.689L311.155 215.709L313.849 215.729L316.548 215.749L319.253 215.77L321.963 215.79L324.678 215.811L327.399 215.832L330.125 215.852L332.856 215.873L335.593 215.893L338.334 215.914L341.081 215.935L343.833 215.955L346.591 215.976L349.353 215.998L352.122 216.018L354.895 216.039L357.673 216.06L360.457 216.081L363.246 216.102L366.04 216.123L368.839 216.144L371.644 216.166L374.453 216.187L377.269 216.208L380.089 216.229L382.913 216.25L385.744 216.272L388.581 216.293L391.421 216.314L394.267 216.336L397.119 216.358L399.975 216.379L402.837 216.401L405.704 216.422L408.575 216.444L411.452 216.466L414.335 216.488L417.222 216.509L420.114 216.531L423.013 216.553L425.916 216.574L428.823 216.597L431.736 216.619L434.655 216.641L437.578 216.663L440.506 216.685L443.439 216.708L446.378 216.73L449.322 216.752L452.271 216.774L455.225 216.796L458.184 216.818L461.148 216.841L464.117 216.863L467.092 216.886L470.071 216.908L473.055 216.93L476.044 216.953L479.039 216.976L482.038 216.998L485.043 217.021L488.053 217.043L491.068 217.067L494.087 217.089L497.112 217.112L500.142 217.135L503.176 217.158L506.216 217.181L509.261 217.204L512.311 217.226L515.366 217.25L518.426 217.273L521.49 217.296L524.56 217.319L527.635 217.342L530.715 217.366L533.8 217.389L536.89 217.412L539.984 217.435L540 215.322L536.906 215.299L533.816 215.276L530.73 215.253L527.651 215.229L524.576 215.206L521.506 215.183L518.442 215.16L515.382 215.136L512.327 215.114L509.277 215.091L506.233 215.068L503.192 215.045L500.157 215.022L497.128 214.999L494.102 214.976L491.083 214.954L488.069 214.93L485.059 214.908L482.054 214.885L479.055 214.863L476.06 214.841L473.071 214.817L470.086 214.795L467.108 214.773L464.133 214.75L461.163 214.728L458.199 214.705L455.241 214.683L452.287 214.661L449.338 214.639L446.394 214.617L443.455 214.594L440.522 214.572L437.593 214.55L434.671 214.528L431.752 214.506L428.839 214.483L425.931 214.461L423.029 214.44L420.131 214.418L417.238 214.396L414.351 214.375L411.468 214.352L408.592 214.331L405.72 214.309L402.853 214.288L399.991 214.266L397.135 214.245L394.283 214.223L391.437 214.201L388.597 214.18L385.76 214.159L382.929 214.137L380.105 214.116L377.284 214.095L374.469 214.074L371.659 214.052L368.855 214.031L366.056 214.01L363.262 213.989L360.473 213.968L357.689 213.947L354.91 213.926L352.138 213.904L349.369 213.884L346.607 213.863L343.849 213.842L341.097 213.822L338.35 213.801L335.608 213.78L332.872 213.76L330.141 213.739L327.415 213.719L324.695 213.697L321.979 213.677L319.268 213.657L316.564 213.636L313.864 213.616L311.171 213.596L308.481 213.576L305.798 213.555L303.12 213.535L300.447 213.515L297.779 213.495L295.117 213.474L292.459 213.454L289.808 213.434L287.162 213.414L284.521 213.395L281.885 213.375L279.255 213.355L276.63 213.335L274.01 213.315L271.397 213.296L268.788 213.276L266.184 213.257L263.586 213.237L260.994 213.217L258.406 213.198L255.824 213.179L253.248 213.159L250.677 213.14L248.111 213.119L245.551 213.1L242.995 213.081L240.446 213.062L237.902 213.043L235.363 213.023L232.83 213.004L230.302 212.985L227.78 212.966L225.263 212.947L222.751 212.928L220.245 212.909L217.744 212.891L215.249 212.872L212.76 212.853L210.275 212.834L207.796 212.816L205.324 212.797L202.855 212.778L200.393 212.76L197.936 212.741L195.484 212.723L193.039 212.704L190.598 212.686L188.163 212.667L185.734 212.649L183.31 212.631L180.892 212.612L178.479 212.594L176.071 212.576L173.669 212.558L171.274 212.54L168.883 212.523L166.498 212.505L164.118 212.487L161.743 212.469L159.375 212.451L157.012 212.433L154.655 212.415L152.303 212.397L149.957 212.379L147.616 212.362L145.281 212.344L142.951 212.326L140.627 212.309L138.309 212.291L135.996 212.274L133.689 212.256L131.387 212.239L129.091 212.221L126.801 212.205L124.516 212.188L122.237 212.17L119.963 212.153L117.695 212.136L115.433 212.119L113.177 212.102L110.926 212.085L108.68 212.068L106.44 212.051L104.206 212.034L101.977 212.018L99.7552 212.001L97.5382 211.984L95.3265 211.967L93.1211 211.951L90.921 211.934L88.7262 211.917L86.5378 211.901L84.3546 211.884L82.1778 211.867L80.0062 211.852L77.8399 211.835L75.68 211.819L73.5254 211.803L71.377 211.786L69.234 211.77L67.0963 211.754L64.9649 211.738L62.8388 211.722L60.719 211.706L58.6045 211.69L56.4953 211.674L54.3924 211.658L52.2959 211.642L50.2046 211.627L48.1187 211.611L46.039 211.595L43.9647 211.579L41.8967 211.564L39.834 211.548L37.7776 211.533L35.7265 211.518L33.6807 211.502L31.6413 211.486L29.6081 211.471L27.5803 211.455L25.5588 211.441L23.5426 211.426L21.5316 211.41L19.527 211.395L17.5288 211.38L15.5358 211.365L13.5492 211.35L11.5678 211.335L9.59283 211.32L7.6231 211.305L5.65971 211.291L3.70162 211.276L1.74987 211.261L-0.196613 211.246L-2.13675 211.231L-4.07053 211.217L-5.99905 211.203L-7.92122 211.188L-9.8381 211.173L-11.7487 211.16L-13.6539 211.145L-15.5528 211.13L-17.4465 211.116L-19.3338 211.101L-21.2147 211.088L-23.0894 211.074L-24.9597 211.059L-26.8227 211.045L-28.6804 211.032L-30.5318 211.017L-32.3779 211.003L-34.2177 210.989L-36.0511 210.976L-37.8792 210.962L-39.701 210.948L-41.5175 210.935L-43.3276 210.921L-45.1314 210.907L-46.9289 210.893L-48.7211 210.88L-50.508 210.867L-52.2875 210.853L-54.0618 210.839L-55.8297 210.827L-57.5923 210.813L-59.3485 210.8L-61.0985 210.787L-62.8431 210.774L-64.5814 210.76L-66.3134 210.748L-68.039 210.735L-69.7593 210.721L-71.4733 210.708L-73.181 210.696L-74.8834 210.683L-76.5794 210.67L-78.2691 210.657L-79.9535 210.644L-81.6305 210.631L-83.3022 210.619L-84.9687 210.607L-86.6277 210.594L-88.2815 210.582L-89.9289 210.569L-91.57 210.556L-93.2058 210.545L-94.8353 210.532L-96.4584 210.52L-98.0752 210.508L-99.6867 210.495L-101.291 210.483L-102.89 210.472L-104.482 210.459L-106.069 210.447L-107.649 210.436L-109.224 210.423L-110.792 210.412L-112.354 210.4L-113.909 210.388L-115.459 210.377L-117.003 210.365L-118.541 210.353L-120.072 210.342L-121.597 210.33L-123.115 210.319L-124.628 210.307L-126.135 210.296L-127.636 210.285L-129.13 210.273L-130.618 210.263L-132.099 210.251L-133.576 210.239L-135.044 210.229L-136.508 210.218L-137.965 210.207L-139.416 210.196L-140.861 210.184L-142.299 210.174L-143.731 210.163L-145.157 210.153L-146.576 210.142L-147.99 210.131L-149.398 210.12L-150.799 210.109L-152.194 210.099L-153.582 210.089L-154.965 210.079L-156.341 210.068L-157.71 210.058L-159.073 210.047L-160.431 210.038L-161.782 210.027L-163.127 210.016L-164.465 210.007L-165.797 209.996L-167.122 209.987L-168.442 209.976L-169.756 209.967L-171.062 209.957L-172.362 209.947L-173.657 209.937L-174.945 209.928L-176.227 209.918L-177.501 209.909L-178.77 209.899L-180.033 209.89L-181.29 209.88L-182.54 209.871L-183.783 209.861L-185.021 209.852L-186.251 209.842L-187.476 209.833L-188.694 209.824L-189.906 209.815L-191.111 209.806L-192.31 209.797L-193.503 209.787L-194.689 209.779L-195.869 209.77L-197.042 209.761L-198.209 209.752L-199.37 209.744L-200.524 209.734L-201.672 209.726L-202.814 209.717L-203.949 209.709L-205.077 209.7L-206.199 209.692L-207.315 209.684L-208.424 209.675L-209.527 209.667L-210.623 209.658L-211.713 209.65L-212.797 209.642L-213.874 209.634L-214.945 209.625L-216.009 209.618L-217.066 209.61L-218.117 209.602L-219.162 209.594L-220.2 209.586L-221.232 209.578L-222.257 209.571L-223.276 209.563L-224.288 209.556L-225.294 209.547L-226.293 209.54L-227.286 209.532L-228.272 209.525L-229.252 209.518L-230.225 209.51L-231.191 209.503L-232.151 209.496L-233.105 209.489L-234.052 209.482L-234.992 209.474L-235.926 209.467L-236.853 209.461L-237.774 209.453L-238.688 209.447L-239.596 209.44L-240.497 209.433L-241.391 209.426L-242.279 209.419L-243.161 209.413L-244.035 209.407L-244.904 209.399L-245.765 209.393L-246.62 209.387L-247.468 209.38L-248.31 209.374L-249.145 209.368L-249.973 209.361L-250.795 209.355L-251.611 209.349L-252.419 209.343L-253.221 209.337L-254.016 209.331L-254.805 209.325L-255.587 209.319L-256.362 209.313L-257.131 209.307L-257.893 209.302L-258.649 209.296L-259.397 209.291L-260.139 209.285L-260.875 209.279L-261.603 209.274L-262.325 209.268L-263.041 209.263L-263.749 209.258L-264.451 209.253L-265.146 209.247L-265.835 209.242L-266.517 209.237L-267.192 209.231L-267.86 209.226L-268.522 209.222L-269.177 209.217L-269.825 209.211L-270.466 209.207L-271.101 209.202L-271.729 209.198L-272.35 209.192L-272.965 209.188L-273.572 209.184L-274.173 209.179L-274.767 209.174L-275.355 209.17L-275.935 209.166L-276.509 209.162L-277.076 209.157L-277.636 209.153L-278.19 209.149L-278.737 209.145L-279.276 209.141L-279.809 209.136L-280.336 209.132L-280.855 209.129L-281.368 209.125L-281.874 209.12L-282.373 209.117L-282.865 209.113L-283.35 209.11L-283.829 209.106L-284.3 209.102L-284.765 209.099L-285.223 209.095L-285.674 209.092L-286.118 209.089L-286.555 209.086L-286.986 209.082L-287.41 209.079L-287.826 209.076L-288.236 209.073L-288.639 209.07L-289.035 209.067L-289.424 209.063L-289.807 209.061L-290.182 209.058L-290.551 209.055L-290.912 209.053L-291.267 209.05L-291.615 209.048L-291.955 209.044L-292.289 209.042L-292.616 209.04L-292.936 209.037L-293.249 209.035L-293.556 209.033L-293.855 209.031L-294.147 209.029L-294.432 209.026L-294.711 209.024L-294.982 209.022L-295.246 209.02L-295.504 209.018L-295.754 209.016L-295.998 209.014L-296.234 209.013L-296.464 209.011L-296.686 209.01L-296.902 209.007L-297.11 209.005L-297.311 209.004L-297.506 209.003L-297.693 209.001L-297.874 209L-298.047 208.999L-298.214 208.998L-298.373 208.996L-298.525 208.995L-298.671 208.994L-298.809 208.993L-298.94 208.992H-299.064L-299.181 208.99L-299.291 208.989L-299.394 208.988L-299.49 208.987H-299.579L-299.66 208.986H-299.735L-299.803 208.985H-299.863L-299.916 208.984H-299.963H-300.002H-300.034L-300.059 208.983H-300.077H-300.087ZM-300.099 493.194C-300.779 492.386 -300.778 492.385 -300.775 492.382L-300.764 492.373L-300.719 492.336L-300.709 492.326L-300.616 492.249L-300.546 492.191L-300.416 492.083L-300.269 491.962C-300.152 491.866 -300.015 491.754 -299.859 491.625C-299.249 491.126 -298.339 490.388 -297.13 489.425C-294.712 487.499 -291.099 484.679 -286.316 481.09C-276.75 473.913 -262.499 463.664 -243.748 451.369C-206.247 426.778 -150.744 393.999 -78.715 361.221C65.3442 295.664 275.516 230.114 539.993 230.114V232.227C275.871 232.227 65.9973 297.689 -77.839 363.144C-149.758 395.872 -205.166 428.598 -242.589 453.136C-261.3 465.406 -275.515 475.628 -285.048 482.781C-289.814 486.356 -293.41 489.165 -295.813 491.078C-297.015 492.035 -297.918 492.767 -298.52 493.259C-298.821 493.507 -299.046 493.693 -299.196 493.817C-299.256 493.867 -299.304 493.907 -299.34 493.937L-299.364 493.957L-299.406 493.992L-299.416 494C-299.416 494 -299.417 494.001 -299.468 493.942C-299.538 493.86 -299.704 493.663 -300.099 493.194ZM-300.551 373.906C-300.553 373.907 -300.555 373.908 -300.099 374.861C-299.643 375.814 -299.642 375.814 -299.64 375.813L-299.63 375.807L-299.588 375.788L-299.42 375.708C-299.27 375.637 -299.044 375.532 -298.743 375.391C-298.496 375.276 -298.198 375.139 -297.85 374.978C-297.637 374.88 -297.405 374.773 -297.154 374.659C-296.816 374.505 -296.443 374.335 -296.036 374.151C-293.632 373.063 -290.035 371.465 -285.267 369.431C-275.732 365.365 -261.514 359.551 -242.799 352.574C-205.369 338.619 -149.948 320.009 -78.0123 301.397C65.8599 264.174 275.793 226.944 539.993 226.944V224.831C275.594 224.831 65.4816 262.088 -78.5417 299.352C-150.554 317.983 -206.044 336.616 -243.538 350.594C-262.285 357.583 -276.532 363.408 -286.097 367.488C-290.879 369.527 -294.49 371.131 -296.907 372.226C-298.116 372.772 -299.026 373.193 -299.635 373.476C-299.806 373.556 -299.954 373.625 -300.077 373.683C-300.173 373.727 -300.255 373.766 -300.322 373.798L-300.495 373.879L-300.539 373.9L-300.551 373.906ZM-300.099 279.772C-300.296 278.734 -300.295 278.733 -300.292 278.733L-300.281 278.731L-300.238 278.723L-300.066 278.691C-299.913 278.662 -299.685 278.619 -299.381 278.563C-298.774 278.451 -297.865 278.284 -296.659 278.067C-294.245 277.633 -290.637 276.997 -285.858 276.188C-276.302 274.569 -262.062 272.256 -243.323 269.482C-205.847 263.933 -150.375 256.535 -78.3853 249.137C65.5958 234.342 275.654 219.549 539.993 219.549V221.662C275.733 221.662 65.7468 236.451 -78.1687 251.24C-150.127 258.633 -205.567 266.027 -243.014 271.572C-261.737 274.344 -275.963 276.655 -285.505 278.271C-290.277 279.08 -293.878 279.715 -296.285 280.147C-297.011 280.278 -297.63 280.39 -298.138 280.483C-298.472 280.544 -298.758 280.597 -298.997 280.641C-299.299 280.697 -299.525 280.739 -299.676 280.767L-299.846 280.8L-299.888 280.807L-299.898 280.809C-299.901 280.809 -299.902 280.81 -300.099 279.772Z" fill="url(#paint0_linear_14_3)"/>
</g>
<mask id="mask1_14_3" style="mask-type:alpha" maskUnits="userSpaceOnUse" x="783" y="0" width="497" height="349">
<rect x="783" width="497" height="349" fill="#D9D9D9"/>
</mask>
<g mask="url(#mask1_14_3)">
<path opacity="0.5" fill-rule="evenodd" clip-rule="evenodd" d="M1581 -321.907C1581 -321.911 1581 -321.914 1580.1 -322.459C1579.19 -323.005 1579.19 -323.004 1579.19 -322.999L1579.18 -322.982L1579.14 -322.914C1579.1 -322.851 1579.04 -322.758 1578.97 -322.636C1578.82 -322.389 1578.59 -322.021 1578.29 -321.534C1577.69 -320.56 1576.78 -319.113 1575.58 -317.224C1573.17 -313.448 1569.58 -307.907 1564.81 -300.851C1555.27 -286.741 1541.05 -266.578 1522.33 -242.379C1484.9 -193.98 1429.49 -129.45 1357.57 -64.92C1213.73 64.1476 1003.95 193.135 740.007 193.135V195.248C1004.66 195.248 1214.93 65.9099 1358.98 -63.3479C1431.01 -127.981 1486.51 -192.612 1524 -241.086C1542.75 -265.324 1557 -285.524 1566.56 -299.668C1571.34 -306.74 1574.95 -312.298 1577.36 -316.09C1578.57 -317.985 1579.48 -319.44 1580.09 -320.421C1580.39 -320.912 1580.62 -321.283 1580.77 -321.534C1580.85 -321.66 1580.91 -321.754 1580.95 -321.817L1580.99 -321.889L1581 -321.907ZM1580.9 -166.457C1580.9 -166.46 1580.9 -166.461 1580.1 -167.147C1579.29 -167.832 1579.29 -167.831 1579.29 -167.829L1579.28 -167.817L1579.24 -167.768L1579.17 -167.683L1579.07 -167.573C1579.01 -167.498 1578.93 -167.408 1578.84 -167.302L1578.69 -167.133C1578.6 -167.031 1578.5 -166.918 1578.39 -166.794C1577.79 -166.106 1576.89 -165.084 1575.69 -163.748C1573.28 -161.078 1569.69 -157.159 1564.92 -152.168C1555.38 -142.188 1541.17 -127.925 1522.46 -110.807C1485.03 -76.5695 1429.62 -30.913 1357.71 14.7435C1213.88 106.058 1004.05 197.361 740.007 197.361V199.474C1004.56 199.474 1214.78 107.995 1358.84 16.527C1430.88 -29.2067 1486.38 -74.9424 1523.88 -109.248C1542.63 -126.401 1556.88 -140.698 1566.45 -150.709C1571.23 -155.715 1574.84 -159.65 1577.26 -162.335C1578.47 -163.677 1579.38 -164.708 1579.98 -165.403C1580.29 -165.75 1580.52 -166.015 1580.67 -166.192C1580.75 -166.281 1580.81 -166.347 1580.84 -166.393L1580.89 -166.443L1580.9 -166.457ZM1580.1 -59.3795C1580.78 -58.5712 1580.78 -58.5691 1580.77 -58.567L1580.76 -58.5575L1580.72 -58.5205L1580.61 -58.4254L1580.55 -58.3768C1580.39 -58.249 1580.16 -58.0599 1579.86 -57.8105C1579.25 -57.3118 1578.34 -56.5733 1577.13 -55.6097C1574.71 -53.6847 1571.1 -50.8637 1566.32 -47.2757C1556.75 -40.0986 1542.5 -29.8501 1523.75 -17.5551C1486.25 7.03602 1430.74 39.8164 1358.72 72.5936C1214.66 138.15 1004.48 203.7 740.007 203.7V201.587C1004.13 201.587 1214 136.126 1357.84 70.6707C1429.76 37.9432 1485.17 5.21666 1522.59 -19.3216C1541.3 -31.5913 1555.51 -41.8134 1565.05 -48.9651C1569.81 -52.5415 1573.41 -55.3498 1575.81 -57.2632C1577.01 -58.2194 1577.92 -58.9526 1578.52 -59.445C1578.65 -59.5506 1578.76 -59.6457 1578.87 -59.7292C1579 -59.8401 1579.11 -59.931 1579.2 -60.0028C1579.27 -60.0641 1579.33 -60.1117 1579.36 -60.1423L1579.41 -60.1772L1579.42 -60.1856C1579.42 -60.1856 1579.42 -60.1867 1579.44 -60.1624C1579.45 -60.1508 1579.46 -60.1339 1579.48 -60.1085C1579.52 -60.062 1579.59 -59.9881 1579.69 -59.8687L1580.1 -59.3795ZM1580.55 58.8522C1580.55 58.8522 1580.55 58.8522 1580.55 58.8501C1580.55 58.848 1580.55 58.8437 1580.54 58.8342C1580.54 58.8163 1580.52 58.7803 1580.48 58.7064C1580.42 58.5796 1580.31 58.3419 1580.1 57.8971C1579.89 57.466 1579.78 57.2304 1579.72 57.1015C1579.69 57.0413 1579.67 57.0043 1579.66 56.981C1579.65 56.9589 1579.64 56.9504 1579.64 56.9473C1579.64 56.9451 1579.64 56.9451 1579.64 56.9451L1579.63 56.9504L1579.59 56.9705L1579.42 57.0497C1579.27 57.1205 1579.04 57.2262 1578.74 57.3667C1578.14 57.6467 1577.24 58.064 1576.04 58.6081C1573.63 59.6953 1570.03 61.2928 1565.27 63.3267C1555.73 67.3944 1541.51 73.2075 1522.8 80.1838C1485.37 94.1387 1429.95 112.749 1358.01 131.361C1214.14 168.584 1004.21 205.813 740.007 205.813V207.927C1004.41 207.927 1214.52 170.67 1358.54 133.406C1430.55 114.775 1486.04 96.1419 1523.54 82.1638C1542.28 75.1748 1556.53 69.35 1566.1 65.2707C1570.88 63.2305 1574.49 61.6267 1576.91 60.5332C1578.12 59.9859 1579.03 59.5654 1579.64 59.2822C1579.94 59.1406 1580.17 59.0329 1580.32 58.961L1580.5 58.8786L1580.54 58.8575L1580.55 58.8522ZM1580.1 151.93C1580.24 152.685 1580.28 152.891 1580.29 152.947C1580.29 152.968 1580.29 152.968 1580.29 152.968L1580.28 152.97L1580.24 152.979L1580.07 153.012C1579.91 153.04 1579.68 153.082 1579.38 153.138L1579.1 153.191L1578.75 153.256C1578.55 153.29 1578.34 153.33 1578.11 153.371C1577.69 153.448 1577.2 153.536 1576.66 153.634C1574.24 154.068 1570.64 154.704 1565.86 155.513C1556.3 157.133 1542.06 159.445 1523.32 162.219C1485.85 167.768 1430.38 175.166 1358.39 182.564C1214.4 197.359 1004.35 212.153 740.007 212.153V210.04C1004.27 210.04 1214.25 195.25 1358.17 180.462C1430.13 173.068 1485.57 165.674 1523.01 160.129C1541.74 157.357 1555.96 155.048 1565.51 153.43C1570.28 152.622 1573.88 151.987 1576.28 151.555C1577.49 151.338 1578.39 151.172 1579 151.06C1579.3 151.005 1579.53 150.963 1579.68 150.934L1579.85 150.903L1579.89 150.894L1579.9 150.892C1579.9 150.892 1579.9 150.892 1579.9 150.912C1579.91 150.932 1579.92 150.97 1579.93 151.045L1579.96 151.212C1579.99 151.365 1580.03 151.594 1580.1 151.93ZM1580.09 208.983C1580.09 208.983 1580.09 208.983 1580.1 210.04C1580.11 211.096 1580.11 211.096 1580.1 211.096H1580.09H1580.07L1580.05 211.097H1580.02H1579.98H1579.93L1579.88 211.098H1579.82L1579.75 211.099H1579.68L1579.59 211.1H1579.51L1579.41 211.101L1579.31 211.103L1579.2 211.104H1579.08L1578.96 211.105L1578.82 211.106L1578.69 211.107L1578.54 211.108L1578.39 211.109L1578.23 211.111L1578.06 211.112L1577.89 211.113L1577.71 211.114L1577.52 211.116L1577.33 211.117L1577.13 211.118L1576.92 211.121L1576.7 211.122L1576.48 211.124L1576.25 211.126L1576.01 211.127L1575.77 211.129L1575.52 211.131L1575.26 211.133L1575 211.135L1574.73 211.137L1574.45 211.139L1574.16 211.142L1573.87 211.144L1573.57 211.146L1573.27 211.148L1572.95 211.15L1572.63 211.152L1572.31 211.155L1571.97 211.157L1571.63 211.161L1571.28 211.163L1570.93 211.166L1570.57 211.168L1570.2 211.171L1569.82 211.174L1569.44 211.176L1569.05 211.18L1568.66 211.183L1568.25 211.186L1567.84 211.189L1567.43 211.192L1567 211.195L1566.57 211.199L1566.13 211.202L1565.69 211.205L1565.24 211.208L1564.78 211.212L1564.32 211.216L1563.84 211.219L1563.37 211.223L1562.88 211.226L1562.39 211.23L1561.89 211.234L1561.38 211.238L1560.87 211.242L1560.35 211.245L1559.83 211.249L1559.29 211.254L1558.75 211.258L1558.21 211.262L1557.65 211.265L1557.09 211.269L1556.53 211.275L1555.95 211.279L1555.37 211.283L1554.78 211.287L1554.19 211.292L1553.59 211.297L1552.98 211.301L1552.37 211.305L1551.74 211.311L1551.12 211.315L1550.48 211.32L1549.84 211.324L1549.19 211.33L1548.54 211.335L1547.88 211.339L1547.21 211.344L1546.53 211.35L1545.85 211.355L1545.16 211.36L1544.47 211.366L1543.77 211.371L1543.06 211.376L1542.34 211.381L1541.62 211.387L1540.89 211.392L1540.16 211.397L1539.41 211.404L1538.66 211.409L1537.91 211.415L1537.15 211.421L1536.38 211.426L1535.6 211.432L1534.82 211.439L1534.03 211.444L1533.24 211.45L1532.44 211.456L1531.63 211.462L1530.81 211.468L1529.99 211.474L1529.16 211.481L1528.33 211.487L1527.48 211.493L1526.64 211.5L1525.78 211.506L1524.92 211.512L1524.05 211.519L1523.18 211.526L1522.3 211.533L1521.41 211.539L1520.51 211.546L1519.61 211.553L1518.7 211.56L1517.79 211.566L1516.87 211.574L1515.94 211.58L1515.01 211.587L1514.07 211.595L1513.12 211.602L1512.17 211.609L1511.21 211.616L1510.24 211.623L1509.27 211.631L1508.29 211.638L1507.3 211.646L1506.31 211.653L1505.31 211.66L1504.3 211.669L1503.29 211.676L1502.27 211.684L1501.25 211.691L1500.22 211.699L1499.18 211.707L1498.13 211.715L1497.08 211.723L1496.02 211.731L1494.96 211.739L1493.89 211.747L1492.81 211.755L1491.73 211.763L1490.64 211.771L1489.54 211.78L1488.44 211.788L1487.33 211.797L1486.22 211.805L1485.09 211.814L1483.96 211.822L1482.83 211.83L1481.69 211.839L1480.54 211.847L1479.39 211.856L1478.23 211.865L1477.06 211.874L1475.88 211.882L1474.7 211.892L1473.52 211.9L1472.33 211.91L1471.13 211.918L1469.92 211.928L1468.71 211.937L1467.49 211.946L1466.27 211.955L1465.04 211.965L1463.8 211.974L1462.56 211.984L1461.31 211.993L1460.05 212.003L1458.79 212.012L1457.52 212.022L1456.24 212.031L1454.96 212.041L1453.67 212.05L1452.38 212.06L1451.08 212.07L1449.77 212.08L1448.46 212.089L1447.14 212.1L1445.81 212.109L1444.48 212.12L1443.14 212.129L1441.8 212.14L1440.45 212.151L1439.09 212.16L1437.73 212.171L1436.36 212.181L1434.98 212.192L1433.6 212.202L1432.21 212.212L1430.81 212.222L1429.41 212.233L1428.01 212.244L1426.59 212.255L1425.17 212.266L1423.75 212.276L1422.31 212.287L1420.88 212.297L1419.43 212.309L1417.98 212.32L1416.52 212.33L1415.06 212.342L1413.59 212.352L1412.12 212.364L1410.63 212.376L1409.15 212.386L1407.65 212.398L1406.15 212.409L1404.64 212.42L1403.13 212.432L1401.61 212.443L1400.09 212.455L1398.56 212.467L1397.02 212.478L1395.48 212.49L1393.93 212.501L1392.37 212.513L1390.81 212.525L1389.24 212.536L1387.66 212.549L1386.09 212.561L1384.5 212.572L1382.91 212.585L1381.31 212.596L1379.7 212.608L1378.09 212.621L1376.47 212.632L1374.85 212.645L1373.22 212.658L1371.59 212.669L1369.94 212.682L1368.3 212.695L1366.64 212.707L1364.98 212.72L1363.32 212.732L1361.65 212.744L1359.97 212.757L1358.28 212.77L1356.6 212.782L1354.9 212.796L1353.2 212.809L1351.49 212.822L1349.78 212.834L1348.05 212.847L1346.33 212.861L1344.6 212.873L1342.86 212.887L1341.11 212.9L1339.36 212.913L1337.61 212.926L1335.85 212.94L1334.08 212.953L1332.3 212.966L1330.52 212.98L1328.74 212.993L1326.95 213.006L1325.15 213.02L1323.34 213.034L1321.53 213.048L1319.72 213.061L1317.9 213.075L1316.07 213.089L1314.23 213.103L1312.39 213.116L1310.55 213.13L1308.7 213.145L1306.84 213.159L1304.98 213.172L1303.11 213.186L1301.23 213.201L1299.35 213.215L1297.46 213.229L1295.57 213.243L1293.67 213.258L1291.77 213.272L1289.85 213.286L1287.94 213.301L1286.01 213.316L1284.09 213.33L1282.15 213.345L1280.21 213.359L1278.27 213.374L1276.31 213.389L1274.36 213.404L1272.39 213.418L1270.42 213.433L1268.45 213.448L1266.47 213.463L1264.48 213.478L1262.49 213.494L1260.49 213.508L1258.48 213.523L1256.47 213.539L1254.46 213.554L1252.44 213.569L1250.41 213.584L1248.37 213.599L1246.34 213.615L1244.29 213.631L1242.24 213.646L1240.18 213.661L1238.12 213.677L1236.05 213.692L1233.98 213.708L1231.9 213.724L1229.81 213.74L1227.72 213.756L1225.62 213.771L1223.52 213.787L1221.41 213.803L1219.3 213.819L1217.18 213.835L1215.05 213.851L1212.92 213.867L1210.78 213.883L1208.64 213.899L1206.49 213.916L1204.34 213.932L1202.18 213.948L1200.01 213.965L1197.84 213.981L1195.66 213.997L1193.48 214.013L1191.29 214.03L1189.09 214.047L1186.89 214.063L1184.69 214.08L1182.48 214.097L1180.26 214.114L1178.04 214.131L1175.81 214.147L1173.58 214.164L1171.34 214.181L1169.09 214.198L1166.84 214.215L1164.58 214.232L1162.32 214.249L1160.05 214.266L1157.78 214.283L1155.5 214.301L1153.21 214.318L1150.93 214.335L1148.63 214.352L1146.33 214.369L1144.02 214.387L1141.71 214.404L1139.39 214.422L1137.07 214.439L1134.74 214.457L1132.4 214.475L1130.06 214.492L1127.71 214.51L1125.36 214.528L1123 214.546L1120.64 214.564L1118.27 214.582L1115.9 214.6L1113.52 214.618L1111.13 214.636L1108.74 214.654L1106.35 214.672L1103.94 214.69L1101.54 214.707L1099.12 214.725L1096.71 214.744L1094.28 214.762L1091.85 214.78L1089.42 214.799L1086.98 214.817L1084.53 214.836L1082.08 214.854L1079.62 214.873L1077.16 214.891L1074.69 214.91L1072.22 214.929L1069.74 214.947L1067.26 214.966L1064.77 214.985L1062.27 215.004L1059.77 215.022L1057.26 215.041L1054.75 215.06L1052.24 215.079L1049.71 215.098L1047.19 215.117L1044.65 215.136L1042.11 215.155L1039.57 215.176L1037.02 215.195L1034.47 215.214L1031.91 215.233L1029.34 215.253L1026.77 215.272L1024.19 215.292L1021.61 215.311L1019.02 215.33L1016.43 215.35L1013.83 215.369L1011.23 215.389L1008.62 215.409L1006.01 215.428L1003.39 215.448L1000.76 215.468L998.131 215.488L995.496 215.507L992.854 215.527L990.208 215.547L987.556 215.567L984.899 215.588L982.237 215.608L979.57 215.628L976.896 215.648L974.219 215.668L971.534 215.689L968.845 215.709L966.151 215.729L963.452 215.749L960.747 215.77L958.037 215.79L955.322 215.811L952.601 215.832L949.875 215.852L947.144 215.873L944.407 215.893L941.666 215.914L938.919 215.935L936.167 215.955L933.409 215.976L930.647 215.998L927.878 216.018L925.105 216.039L922.327 216.06L919.543 216.081L916.754 216.102L913.96 216.123L911.161 216.144L908.356 216.166L905.547 216.187L902.731 216.208L899.911 216.229L897.087 216.25L894.256 216.272L891.419 216.293L888.579 216.314L885.733 216.336L882.881 216.358L880.025 216.379L877.163 216.401L874.296 216.422L871.425 216.444L868.548 216.466L865.665 216.488L862.778 216.509L859.886 216.531L856.987 216.553L854.084 216.574L851.177 216.597L848.264 216.619L845.345 216.641L842.422 216.663L839.494 216.685L836.561 216.708L833.622 216.73L830.678 216.752L827.729 216.774L824.775 216.796L821.816 216.818L818.852 216.841L815.883 216.863L812.908 216.886L809.929 216.908L806.945 216.93L803.956 216.953L800.961 216.976L797.962 216.998L794.957 217.021L791.947 217.043L788.932 217.067L785.913 217.089L782.888 217.112L779.858 217.135L776.824 217.158L773.784 217.181L770.739 217.204L767.689 217.226L764.634 217.25L761.574 217.273L758.51 217.296L755.44 217.319L752.365 217.342L749.285 217.366L746.2 217.389L743.11 217.412L740.016 217.435L740 215.322L743.094 215.299L746.184 215.276L749.27 215.253L752.349 215.229L755.424 215.206L758.494 215.183L761.558 215.16L764.618 215.136L767.673 215.114L770.723 215.091L773.767 215.068L776.808 215.045L779.843 215.022L782.872 214.999L785.898 214.976L788.917 214.954L791.931 214.93L794.941 214.908L797.946 214.885L800.945 214.863L803.94 214.841L806.929 214.817L809.914 214.795L812.892 214.773L815.867 214.75L818.837 214.728L821.801 214.705L824.759 214.683L827.713 214.661L830.662 214.639L833.606 214.617L836.545 214.594L839.478 214.572L842.407 214.55L845.329 214.528L848.248 214.506L851.161 214.483L854.069 214.461L856.971 214.44L859.869 214.418L862.762 214.396L865.649 214.375L868.532 214.352L871.408 214.331L874.28 214.309L877.147 214.288L880.009 214.266L882.865 214.245L885.717 214.223L888.563 214.201L891.403 214.18L894.24 214.159L897.071 214.137L899.895 214.116L902.716 214.095L905.531 214.074L908.341 214.052L911.145 214.031L913.944 214.01L916.738 213.989L919.527 213.968L922.311 213.947L925.09 213.926L927.862 213.904L930.631 213.884L933.393 213.863L936.151 213.842L938.903 213.822L941.65 213.801L944.392 213.78L947.128 213.76L949.859 213.739L952.585 213.719L955.305 213.697L958.021 213.677L960.732 213.657L963.436 213.636L966.136 213.616L968.829 213.596L971.519 213.576L974.202 213.555L976.88 213.535L979.553 213.515L982.221 213.495L984.883 213.474L987.541 213.454L990.192 213.434L992.838 213.414L995.479 213.395L998.115 213.375L1000.75 213.355L1003.37 213.335L1005.99 213.315L1008.6 213.296L1011.21 213.276L1013.82 213.257L1016.41 213.237L1019.01 213.217L1021.59 213.198L1024.18 213.179L1026.75 213.159L1029.32 213.14L1031.89 213.119L1034.45 213.1L1037 213.081L1039.55 213.062L1042.1 213.043L1044.64 213.023L1047.17 213.004L1049.7 212.985L1052.22 212.966L1054.74 212.947L1057.25 212.928L1059.75 212.909L1062.26 212.891L1064.75 212.872L1067.24 212.853L1069.72 212.834L1072.2 212.816L1074.68 212.797L1077.14 212.778L1079.61 212.76L1082.06 212.741L1084.52 212.723L1086.96 212.704L1089.4 212.686L1091.84 212.667L1094.27 212.649L1096.69 212.631L1099.11 212.612L1101.52 212.594L1103.93 212.576L1106.33 212.558L1108.73 212.54L1111.12 212.523L1113.5 212.505L1115.88 212.487L1118.26 212.469L1120.62 212.451L1122.99 212.433L1125.35 212.415L1127.7 212.397L1130.04 212.379L1132.38 212.362L1134.72 212.344L1137.05 212.326L1139.37 212.309L1141.69 212.291L1144 212.274L1146.31 212.256L1148.61 212.239L1150.91 212.221L1153.2 212.205L1155.48 212.188L1157.76 212.17L1160.04 212.153L1162.3 212.136L1164.57 212.119L1166.82 212.102L1169.07 212.085L1171.32 212.068L1173.56 212.051L1175.79 212.034L1178.02 212.018L1180.24 212.001L1182.46 211.984L1184.67 211.967L1186.88 211.951L1189.08 211.934L1191.27 211.917L1193.46 211.901L1195.65 211.884L1197.82 211.867L1199.99 211.852L1202.16 211.835L1204.32 211.819L1206.47 211.803L1208.62 211.786L1210.77 211.77L1212.9 211.754L1215.04 211.738L1217.16 211.722L1219.28 211.706L1221.4 211.69L1223.5 211.674L1225.61 211.658L1227.7 211.642L1229.8 211.627L1231.88 211.611L1233.96 211.595L1236.04 211.579L1238.1 211.564L1240.17 211.548L1242.22 211.533L1244.27 211.518L1246.32 211.502L1248.36 211.486L1250.39 211.471L1252.42 211.455L1254.44 211.441L1256.46 211.426L1258.47 211.41L1260.47 211.395L1262.47 211.38L1264.46 211.365L1266.45 211.35L1268.43 211.335L1270.41 211.32L1272.38 211.305L1274.34 211.291L1276.3 211.276L1278.25 211.261L1280.2 211.246L1282.14 211.231L1284.07 211.217L1286 211.203L1287.92 211.188L1289.84 211.173L1291.75 211.16L1293.65 211.145L1295.55 211.13L1297.45 211.116L1299.33 211.101L1301.21 211.088L1303.09 211.074L1304.96 211.059L1306.82 211.045L1308.68 211.032L1310.53 211.017L1312.38 211.003L1314.22 210.989L1316.05 210.976L1317.88 210.962L1319.7 210.948L1321.52 210.935L1323.33 210.921L1325.13 210.907L1326.93 210.893L1328.72 210.88L1330.51 210.867L1332.29 210.853L1334.06 210.839L1335.83 210.827L1337.59 210.813L1339.35 210.8L1341.1 210.787L1342.84 210.774L1344.58 210.76L1346.31 210.748L1348.04 210.735L1349.76 210.721L1351.47 210.708L1353.18 210.696L1354.88 210.683L1356.58 210.67L1358.27 210.657L1359.95 210.644L1361.63 210.631L1363.3 210.619L1364.97 210.607L1366.63 210.594L1368.28 210.582L1369.93 210.569L1371.57 210.556L1373.21 210.545L1374.84 210.532L1376.46 210.52L1378.08 210.508L1379.69 210.495L1381.29 210.483L1382.89 210.472L1384.48 210.459L1386.07 210.447L1387.65 210.436L1389.22 210.423L1390.79 210.412L1392.35 210.4L1393.91 210.388L1395.46 210.377L1397 210.365L1398.54 210.353L1400.07 210.342L1401.6 210.33L1403.12 210.319L1404.63 210.307L1406.14 210.296L1407.64 210.285L1409.13 210.273L1410.62 210.263L1412.1 210.251L1413.58 210.239L1415.04 210.229L1416.51 210.218L1417.97 210.207L1419.42 210.196L1420.86 210.184L1422.3 210.174L1423.73 210.163L1425.16 210.153L1426.58 210.142L1427.99 210.131L1429.4 210.12L1430.8 210.109L1432.19 210.099L1433.58 210.089L1434.96 210.079L1436.34 210.068L1437.71 210.058L1439.07 210.047L1440.43 210.038L1441.78 210.027L1443.13 210.016L1444.46 210.007L1445.8 209.996L1447.12 209.987L1448.44 209.976L1449.76 209.967L1451.06 209.957L1452.36 209.947L1453.66 209.937L1454.95 209.928L1456.23 209.918L1457.5 209.909L1458.77 209.899L1460.03 209.89L1461.29 209.88L1462.54 209.871L1463.78 209.861L1465.02 209.852L1466.25 209.842L1467.48 209.833L1468.69 209.824L1469.91 209.815L1471.11 209.806L1472.31 209.797L1473.5 209.787L1474.69 209.779L1475.87 209.77L1477.04 209.761L1478.21 209.752L1479.37 209.744L1480.52 209.734L1481.67 209.726L1482.81 209.717L1483.95 209.709L1485.08 209.7L1486.2 209.692L1487.32 209.684L1488.42 209.675L1489.53 209.667L1490.62 209.658L1491.71 209.65L1492.8 209.642L1493.87 209.634L1494.94 209.625L1496.01 209.618L1497.07 209.61L1498.12 209.602L1499.16 209.594L1500.2 209.586L1501.23 209.578L1502.26 209.571L1503.28 209.563L1504.29 209.556L1505.29 209.547L1506.29 209.54L1507.29 209.532L1508.27 209.525L1509.25 209.518L1510.22 209.51L1511.19 209.503L1512.15 209.496L1513.1 209.489L1514.05 209.482L1514.99 209.474L1515.93 209.467L1516.85 209.461L1517.77 209.453L1518.69 209.447L1519.6 209.44L1520.5 209.433L1521.39 209.426L1522.28 209.419L1523.16 209.413L1524.04 209.407L1524.9 209.399L1525.76 209.393L1526.62 209.387L1527.47 209.38L1528.31 209.374L1529.15 209.368L1529.97 209.361L1530.8 209.355L1531.61 209.349L1532.42 209.343L1533.22 209.337L1534.02 209.331L1534.81 209.325L1535.59 209.319L1536.36 209.313L1537.13 209.307L1537.89 209.302L1538.65 209.296L1539.4 209.291L1540.14 209.285L1540.87 209.279L1541.6 209.274L1542.33 209.268L1543.04 209.263L1543.75 209.258L1544.45 209.253L1545.15 209.247L1545.84 209.242L1546.52 209.237L1547.19 209.231L1547.86 209.226L1548.52 209.222L1549.18 209.217L1549.82 209.211L1550.47 209.207L1551.1 209.202L1551.73 209.198L1552.35 209.192L1552.96 209.188L1553.57 209.184L1554.17 209.179L1554.77 209.174L1555.35 209.17L1555.94 209.166L1556.51 209.162L1557.08 209.157L1557.64 209.153L1558.19 209.149L1558.74 209.145L1559.28 209.141L1559.81 209.136L1560.34 209.132L1560.86 209.129L1561.37 209.125L1561.87 209.12L1562.37 209.117L1562.86 209.113L1563.35 209.11L1563.83 209.106L1564.3 209.102L1564.76 209.099L1565.22 209.095L1565.67 209.092L1566.12 209.089L1566.56 209.086L1566.99 209.082L1567.41 209.079L1567.83 209.076L1568.24 209.073L1568.64 209.07L1569.04 209.067L1569.42 209.063L1569.81 209.061L1570.18 209.058L1570.55 209.055L1570.91 209.053L1571.27 209.05L1571.61 209.048L1571.96 209.044L1572.29 209.042L1572.62 209.04L1572.94 209.037L1573.25 209.035L1573.56 209.033L1573.85 209.031L1574.15 209.029L1574.43 209.026L1574.71 209.024L1574.98 209.022L1575.25 209.02L1575.5 209.018L1575.75 209.016L1576 209.014L1576.23 209.013L1576.46 209.011L1576.69 209.01L1576.9 209.007L1577.11 209.005L1577.31 209.004L1577.51 209.003L1577.69 209.001L1577.87 209L1578.05 208.999L1578.21 208.998L1578.37 208.996L1578.53 208.995L1578.67 208.994L1578.81 208.993L1578.94 208.992H1579.06L1579.18 208.99L1579.29 208.989L1579.39 208.988L1579.49 208.987H1579.58L1579.66 208.986H1579.74L1579.8 208.985H1579.86L1579.92 208.984H1579.96H1580H1580.03L1580.06 208.983H1580.08H1580.09ZM1580.1 493.194C1580.78 492.386 1580.78 492.385 1580.77 492.382L1580.76 492.373L1580.72 492.336L1580.71 492.326L1580.62 492.249L1580.55 492.191L1580.42 492.083L1580.27 491.962C1580.15 491.866 1580.02 491.754 1579.86 491.625C1579.25 491.126 1578.34 490.388 1577.13 489.425C1574.71 487.499 1571.1 484.679 1566.32 481.09C1556.75 473.913 1542.5 463.664 1523.75 451.369C1486.25 426.778 1430.74 393.999 1358.72 361.221C1214.66 295.664 1004.48 230.114 740.007 230.114V232.227C1004.13 232.227 1214 297.689 1357.84 363.144C1429.76 395.872 1485.17 428.598 1522.59 453.136C1541.3 465.406 1555.51 475.628 1565.05 482.781C1569.81 486.356 1573.41 489.165 1575.81 491.078C1577.01 492.035 1577.92 492.767 1578.52 493.259C1578.82 493.507 1579.05 493.693 1579.2 493.817C1579.26 493.867 1579.3 493.907 1579.34 493.937L1579.36 493.957L1579.41 493.992L1579.42 494C1579.42 494 1579.42 494.001 1579.47 493.942C1579.54 493.86 1579.7 493.663 1580.1 493.194ZM1580.55 373.906C1580.55 373.907 1580.55 373.908 1580.1 374.861C1579.64 375.814 1579.64 375.814 1579.64 375.813L1579.63 375.807L1579.59 375.788L1579.42 375.708C1579.27 375.637 1579.04 375.532 1578.74 375.391C1578.5 375.276 1578.2 375.139 1577.85 374.978C1577.64 374.88 1577.4 374.773 1577.15 374.659C1576.82 374.505 1576.44 374.335 1576.04 374.151C1573.63 373.063 1570.03 371.465 1565.27 369.431C1555.73 365.365 1541.51 359.551 1522.8 352.574C1485.37 338.619 1429.95 320.009 1358.01 301.397C1214.14 264.174 1004.21 226.944 740.007 226.944V224.831C1004.41 224.831 1214.52 262.088 1358.54 299.352C1430.55 317.983 1486.04 336.616 1523.54 350.594C1542.28 357.583 1556.53 363.408 1566.1 367.488C1570.88 369.527 1574.49 371.131 1576.91 372.226C1578.12 372.772 1579.03 373.193 1579.64 373.476C1579.81 373.556 1579.95 373.625 1580.08 373.683C1580.17 373.727 1580.25 373.766 1580.32 373.798L1580.5 373.879L1580.54 373.9L1580.55 373.906ZM1580.1 279.772C1580.3 278.734 1580.29 278.733 1580.29 278.733L1580.28 278.731L1580.24 278.723L1580.07 278.691C1579.91 278.662 1579.68 278.619 1579.38 278.563C1578.77 278.451 1577.87 278.284 1576.66 278.067C1574.24 277.633 1570.64 276.997 1565.86 276.188C1556.3 274.569 1542.06 272.256 1523.32 269.482C1485.85 263.933 1430.38 256.535 1358.39 249.137C1214.4 234.342 1004.35 219.549 740.007 219.549V221.662C1004.27 221.662 1214.25 236.451 1358.17 251.24C1430.13 258.633 1485.57 266.027 1523.01 271.572C1541.74 274.344 1555.96 276.655 1565.51 278.271C1570.28 279.08 1573.88 279.715 1576.28 280.147C1577.01 280.278 1577.63 280.39 1578.14 280.483C1578.47 280.544 1578.76 280.597 1579 280.641C1579.3 280.697 1579.53 280.739 1579.68 280.767L1579.85 280.8L1579.89 280.807L1579.9 280.809C1579.9 280.809 1579.9 280.81 1580.1 279.772Z" fill="url(#paint1_linear_14_3)"/>
</g>
<defs>
<filter id="filter0_i_14_3" x="540" y="112" width="201" height="201" filterUnits="userSpaceOnUse" color-interpolation-filters="sRGB">
<feFlood flood-opacity="0" result="BackgroundImageFix"/>
<feBlend mode="normal" in="SourceGraphic" in2="BackgroundImageFix" result="shape"/>
<feColorMatrix in="SourceAlpha" type="matrix" values="0 0 0 0 0 0 0 0 0 0 0 0 0 0 0 0 0 0 127 0" result="hardAlpha"/>
<feMorphology radius="50" operator="dilate" in="SourceAlpha" result="effect1_innerShadow_14_3"/>
<feOffset dx="1" dy="1"/>
<feGaussianBlur stdDeviation="50"/>
<feComposite in2="hardAlpha" operator="arithmetic" k2="-1" k3="1"/>
<feColorMatrix type="matrix" values="0 0 0 0 1 0 0 0 0 0.882353 0 0 0 0 0.6 0 0 0 1 0"/>
<feBlend mode="normal" in2="shape" result="effect1_innerShadow_14_3"/>
</filter>
<linearGradient id="paint0_linear_14_3" x1="527.313" y1="74.7859" x2="-284.691" y2="74.7859" gradientUnits="userSpaceOnUse">
<stop offset="0.0182341" stop-color="white" stop-opacity="0"/>
<stop offset="0.127609" stop-color="white"/>
<stop offset="0.563305" stop-color="white" stop-opacity="0.65"/>
<stop offset="0.943305" stop-color="white" stop-opacity="0"/>
</linearGradient>
<linearGradient id="paint1_linear_14_3" x1="752.687" y1="74.7859" x2="1564.69" y2="74.7859" gradientUnits="userSpaceOnUse">
<stop offset="0.0182341" stop-color="white" stop-opacity="0"/>
<stop offset="0.127609" stop-color="white"/>
<stop offset="0.563305" stop-color="white" stop-opacity="0.65"/>
<stop offset="0.943305" stop-color="white" stop-opacity="0"/>
</linearGradient>
</defs>
</svg>
