<svg width="1280" height="667" viewBox="0 0 1280 667" fill="none" xmlns="http://www.w3.org/2000/svg">
<path d="M1919.79 8.07541L1898.66 1M1919.79 8.07541H1857.16M1919.79 8.07541L1941.63 15.3845M1919.79 8.07541H1964.15M1898.66 1L1906.35 1.00276L1913.96 1.01808L1921.41 1.06115L1928.63 1.14599L1935.54 1.28366L1942.06 1.49088L1948.11 1.77874L1953.73 2.14583L1958.56 2.65343L1962.95 3.24167L1964.15 3.4477V8.07541M1898.66 1H1837.03M1837.03 1H1775.4M1837.03 1L1857.16 8.07541M1775.4 1H1713.77M1775.4 1L1794.52 8.07541M1713.77 1H1652.14M1713.77 1L1731.89 8.07541M1652.14 1H1590.51M1652.14 1L1669.25 8.07541M1590.51 1H1528.88M1590.51 1L1606.62 8.07541M1528.88 1H1467.25M1528.88 1L1543.98 8.07541M1467.25 1H1405.62M1467.25 1L1481.34 8.07541M1405.62 1H1343.99M1405.62 1L1418.71 8.07541M1343.99 1H1282.36M1343.99 1L1356.07 8.07541M1282.36 1H1220.74M1282.36 1L1293.44 8.07541M1220.74 1H1159.11M1220.74 1L1230.8 8.07541M1159.11 1H1097.48M1159.11 1L1161.34 2.74798L1164.73 5.39434L1168.16 8.07541M1097.48 1H1035.85M1097.48 1L1099.47 2.74798L1105.53 8.07541M1035.85 1H974.219M1035.85 1L1042.89 8.07541M974.219 1H912.589M974.219 1L976.46 3.62684L978.73 6.28431L979.492 7.17848L980.258 8.07541M912.589 1H850.96M912.589 1L914.457 3.62684L915.086 4.50849L915.716 5.39434L917.622 8.07541M850.96 1H789.331M850.96 1L854.986 8.07541M789.331 1L789.703 1.87189L790.076 2.74798L791.967 7.17848L792.35 8.07541M789.331 1H727.702M727.702 1H666.072M727.702 1L729.715 8.07541M666.072 1H604.443M666.072 1L666.446 3.62684L667.079 8.07541M604.443 1H542.814M604.443 1V8.07541M542.814 1H481.184M542.814 1L542.44 3.62684L541.807 8.07541M481.184 1H419.555M481.184 1L479.171 8.07541M419.555 1L419.182 1.87189L418.81 2.74798L416.919 7.17848L416.535 8.07541M419.555 1H357.926M357.926 1H296.296M357.926 1L354.41 7.17848L353.899 8.07541M296.296 1H234.667M296.296 1L294.429 3.62684L293.8 4.50849L292.537 6.28431L291.902 7.17848L291.263 8.07541M234.667 1H173.038M234.667 1L232.426 3.62684L230.156 6.28431L229.394 7.17848L228.627 8.07541M173.038 1H111.409M173.038 1L165.993 8.07541M111.409 1H49.7786M111.409 1L109.42 2.74798L103.357 8.07541M49.7786 1H-11.8503M49.7786 1L40.721 8.07541M-11.8503 1H-73.4791M-11.8503 1L-21.915 8.07541M-73.4791 1H-135.109M-73.4791 1L-84.5509 8.07541M-135.109 1H-196.738M-135.109 1L-147.187 8.07541M-196.738 1H-258.367M-196.738 1L-209.823 8.07541M-258.367 1H-319.996M-258.367 1L-272.459 8.07541M-319.996 1H-381.626M-319.996 1L-335.095 8.07541M-381.626 1H-443.255M-381.626 1L-397.73 8.07541M-443.255 1H-504.884M-443.255 1L-460.366 8.07541M-504.884 1H-566.514M-504.884 1L-523.002 8.07541M-566.514 1H-628.143M-566.514 1L-585.637 8.07541M-628.143 1H-689.772M-628.143 1L-648.273 8.07541M-689.772 1L-697.463 1.00276L-705.075 1.01808L-712.528 1.06115L-719.747 1.14599L-726.653 1.28366L-733.172 1.49088L-739.227 1.77874L-744.848 2.14583L-749.67 2.65343L-754.061 3.24167L-755.268 3.44775V8.07541M-689.772 1L-710.909 8.07541M-585.637 8.07541H-523.002M-585.637 8.07541H-648.273M-585.637 8.07541L-605.396 15.3845M-523.002 8.07541L-541.721 15.3845M-523.002 8.07541H-460.366M-335.095 8.07541H-272.459M-335.095 8.07541H-397.73M-335.095 8.07541L-338.946 9.88044L-350.693 15.3845M-272.459 8.07541L-287.017 15.3845M-272.459 8.07541H-209.823M-84.5509 8.07541H-21.915M-84.5509 8.07541H-147.187M-84.5509 8.07541L-87.3752 9.88044L-88.7971 10.7871L-95.9908 15.3845M-21.915 8.07541L-23.1967 8.97515L-24.4828 9.88044L-32.314 15.3845M-21.915 8.07541H40.721M165.993 8.07541L165.095 8.97515L158.713 15.3845M165.993 8.07541H228.627M165.993 8.07541H103.357M228.627 8.07541L227.088 9.88044L226.312 10.7871L225.534 11.6994L222.388 15.3845M228.627 8.07541H291.263M416.535 8.07541H479.171M416.535 8.07541H353.899M416.535 8.07541L413.416 15.3845M479.171 8.07541L478.915 8.97515L478.658 9.88044L478.399 10.7871L477.617 13.5336L477.092 15.3845M479.171 8.07541H541.807M667.079 8.07541H729.715M667.079 8.07541H604.443M667.079 8.07541L668.118 15.3845M729.715 8.07541L729.971 8.97515L730.227 9.88044L730.486 10.7871L731.794 15.3845M729.715 8.07541H792.35M917.622 8.07541H980.258M917.622 8.07541H854.986M917.622 8.07541L918.906 9.88044L921.506 13.5336L922.162 14.457L922.822 15.3845M980.258 8.07541L981.798 9.88044L982.574 10.7871L983.352 11.6994L986.497 15.3845M980.258 8.07541H1042.89M1168.16 8.07541H1230.8M1168.16 8.07541H1105.53M1168.16 8.07541L1170.48 9.88044L1171.64 10.7871L1177.52 15.3845M1230.8 8.07541L1232.08 8.97515L1233.37 9.88044L1241.2 15.3845M1230.8 8.07541H1293.44M1418.71 8.07541H1481.34M1418.71 8.07541H1356.07M1418.71 8.07541L1422.05 9.88044L1423.73 10.7871L1432.23 15.3845M1481.34 8.07541L1495.9 15.3845M1481.34 8.07541H1543.98M1669.25 8.07541H1731.89M1669.25 8.07541H1606.62M1669.25 8.07541L1686.93 15.3845M1731.89 8.07541L1750.61 15.3845M1731.89 8.07541H1794.52M-755.487 74.2408H-755.268M-692.443 74.2408L-668.53 64.9028M-692.443 74.2408L-717.274 83.9361M-692.443 74.2408H-620.394M-692.443 74.2408H-755.268M-668.53 64.9028H-739.25M-668.53 64.9028L-645.481 55.9028M-668.53 64.9028H-597.809M-739.25 64.9028L-714.921 55.9028M-739.25 64.9028H-755.268M-739.25 64.9028L-755.268 70.827M-668.816 38.8455H-601.802M-668.816 38.8455L-646.95 30.7563M-668.816 38.8455H-735.828M-668.816 38.8455L-691.459 47.2226M-601.802 38.8455L-581.086 30.7563M-601.802 38.8455L-623.253 47.2226M-601.802 38.8455H-534.788M-646.95 30.7563H-581.086M-646.95 30.7563L-625.822 22.9411M-646.95 30.7563H-712.812M-581.086 30.7563H-515.224M-581.086 30.7563L-561.071 22.9411M-755.957 221.632H-755.268M-697.821 221.632L-666.984 206.15M-697.821 221.632L-730.191 237.884M-697.821 221.632H-604.802M-697.821 221.632H-755.268M-666.984 206.15L-637.573 191.385M-666.984 206.15H-576.168M-666.984 206.15H-755.268M-726.289 191.385H-637.573M-726.289 191.385L-696.202 177.287M-726.289 191.385H-755.268M-726.289 191.385L-755.268 204.963M-667.447 163.812H-582.655M-667.447 163.812L-639.936 150.921M-667.447 163.812H-752.24M-667.447 163.812L-696.202 177.287M-582.655 163.812L-556.977 150.921M-582.655 163.812L-609.494 177.287M-582.655 163.812H-497.862M-639.936 150.921H-556.977M-639.936 150.921H-722.894M-639.936 150.921L-613.589 138.575M-556.977 150.921L-532.387 138.575M-556.977 150.921H-474.019M-564.107 115.388H-486.204M-564.107 115.388L-540.843 104.487M-564.107 115.388H-642.01M-564.107 115.388L-588.335 126.741M-486.204 115.388L-464.491 104.487M-486.204 115.388L-508.816 126.741M-486.204 115.388H-408.299M-540.843 104.487H-464.491M-540.843 104.487H-617.195M-540.843 104.487L-518.487 94.0111M-464.491 104.487L-443.625 94.0111M-464.491 104.487H-388.137M-476.296 74.2408H-404.247M-476.296 74.2408L-456.368 64.9028M-476.296 74.2408H-548.345M-476.296 74.2408L-496.988 83.9361M-404.247 74.2408L-385.647 64.9028M-404.247 74.2408L-423.559 83.9361M-404.247 74.2408H-332.198M-456.368 64.9028H-385.647M-456.368 64.9028H-527.088M-456.368 64.9028L-437.161 55.9028M-385.647 64.9028L-367.72 55.9028M-385.647 64.9028H-314.927M-400.761 38.8455H-333.748M-400.761 38.8455L-383.499 30.7563M-400.761 38.8455H-467.774M-400.761 38.8455L-418.637 47.2226M-333.748 38.8455L-317.636 30.7563M-333.748 38.8455L-350.432 47.2226M-333.748 38.8455H-266.734M-383.499 30.7563H-317.636M-383.499 30.7563L-366.818 22.9411M-383.499 30.7563H-449.361M-317.636 30.7563H-251.773M-317.636 30.7563L-302.068 22.9411M-707.611 490.04L-664.211 459.534M-707.611 490.04L-754.088 522.707M-707.611 490.04H-576.406M-707.611 490.04H-755.268M-664.211 459.534L-623.588 430.982M-664.211 459.534H-537.346M-664.211 459.534H-755.268M-665.092 379.031H-549.679M-665.092 379.031L-628.004 355.334M-665.092 379.031L-704.481 404.201M-665.092 379.031H-755.268M-549.679 379.031L-515.964 355.334M-549.679 379.031L-585.488 404.201M-549.679 379.031H-434.267M-628.004 355.334H-515.964M-628.004 355.334H-740.045M-628.004 355.334L-593.022 332.98M-515.964 355.334L-484.161 332.98M-515.964 355.334H-403.923M-528.696 291.876H-425.682M-528.696 291.876L-499.056 272.937M-528.696 291.876H-631.708M-528.696 291.876L-559.971 311.862M-425.682 291.876L-398.737 272.937M-425.682 291.876L-454.116 311.862M-425.682 291.876H-322.67M-499.056 272.937H-398.737M-499.056 272.937H-599.374M-499.056 272.937L-470.928 254.964M-398.737 272.937L-373.166 254.964M-398.737 272.937H-298.421M-418.765 221.632H-325.745M-418.765 221.632L-394.535 206.15M-418.765 221.632H-511.783M-418.765 221.632L-444.197 237.884M-325.745 221.632L-303.719 206.15M-325.745 221.632L-348.867 237.884M-325.745 221.632H-232.727M-394.535 206.15H-303.719M-394.535 206.15H-485.351M-394.535 206.15L-371.427 191.385M-303.719 206.15L-282.712 191.385M-303.719 206.15H-212.903M-328.276 163.812H-243.484M-328.276 163.812L-308.101 150.921M-328.276 163.812H-413.07M-328.276 163.812L-349.364 177.287M-243.484 163.812L-225.142 150.921M-243.484 163.812L-262.655 177.287M-243.484 163.812H-158.692M-308.101 150.921H-225.142M-308.101 150.921H-391.059M-308.101 150.921L-288.781 138.575M-225.142 150.921L-207.578 138.575M-225.142 150.921H-142.184M-252.494 115.388H-174.591M-252.494 115.388L-235.433 104.487M-252.494 115.388H-330.396M-252.494 115.388L-270.26 126.741M-174.591 115.388L-172.616 114.001L-159.081 104.487M-174.591 115.388L-190.741 126.741M-174.591 115.388H-96.6863M-235.433 104.487H-159.081M-235.433 104.487H-311.785M-235.433 104.487L-219.039 94.0111M-159.081 104.487L-144.177 94.0111M-159.081 104.487H-82.7281M-188.1 74.2408H-116.049M-188.1 74.2408L-173.484 64.9028M-188.1 74.2408H-260.149M-188.1 74.2408L-203.273 83.9361M-116.049 74.2408L-102.764 64.9028M-116.049 74.2408L-121.161 77.8341L-129.845 83.9361M-116.049 74.2408H-44.0004M-173.484 64.9028H-102.764M-173.484 64.9028H-244.205M-173.484 64.9028L-159.4 55.9028M-102.764 64.9028L-89.96 55.9028M-102.764 64.9028H-32.0435M-132.707 38.8455H-65.6934M-132.707 38.8455L-120.048 30.7563M-132.707 38.8455H-199.72M-132.707 38.8455L-145.816 47.2226M-65.6934 38.8455L-57.0238 32.7532L-55.6018 31.752L-54.184 30.7563M-65.6934 38.8455L-77.6107 47.2226M-65.6934 38.8455H1.32052M-120.048 30.7563H-54.184M-120.048 30.7563L-107.816 22.9411M-120.048 30.7563H-185.91M-54.184 30.7563H11.6785M-54.184 30.7563L-43.0656 22.9411M-660.074 837.543H-479.428M-660.074 837.543L-603.193 780.428M-660.074 837.543L-722.578 900.305M-660.074 837.543L-755.268 837.544M-479.428 837.543L-430.672 780.428M-479.428 837.543L-533.003 900.305M-479.428 837.543H-298.783M-603.193 780.428H-430.672M-603.193 780.428L-551.208 728.229M-603.193 780.428H-755.268M-430.672 780.428L-386.115 728.229M-430.672 780.428H-258.153M-459.602 636.246H-307.594M-459.602 636.246L-419.037 595.513M-459.602 636.246H-611.607M-459.602 636.246L-503.514 680.34M-307.594 636.246L-272.825 595.513M-307.594 636.246L-345.234 680.34M-307.594 636.246H-155.589M-419.037 595.513H-272.825M-419.037 595.513H-565.248M-419.037 595.513L-381.451 557.774M-272.825 595.513L-240.609 557.774M-272.825 595.513H-126.614M-313.995 490.04H-182.79M-313.995 490.04L-283.614 459.534M-313.995 490.04H-445.201M-313.995 490.04L-346.529 522.707M-182.79 490.04L-156.749 459.534M-182.79 490.04L-210.675 522.707M-182.79 490.04H-51.585M-283.614 459.534H-156.749M-283.614 459.534H-410.481M-283.614 459.534L-255.179 430.982M-156.749 459.534L-132.376 430.982M-156.749 459.534H-29.8834M-203.443 379.031H-88.0309M-203.443 379.031L-179.841 355.334M-203.443 379.031H-318.854M-203.443 379.031L-228.509 404.201M-88.0309 379.031L-67.801 355.334M-88.0309 379.031L-109.516 404.201M-88.0309 379.031H27.3817M-179.841 355.334H-67.801M-179.841 355.334H-291.883M-179.841 355.334L-157.58 332.98M-67.801 355.334L-48.7196 332.98M-67.801 355.334H44.2392M-116.646 291.876H-13.6321M-116.646 291.876L-97.784 272.937M-116.646 291.876H-219.658M-116.646 291.876L-136.548 311.862M-13.6321 291.876L2.53442 272.937M-13.6321 291.876L-30.6922 311.862M-13.6321 291.876H89.3802M-97.784 272.937H2.53442M-97.784 272.937H-198.102M-97.784 272.937L-79.884 254.964M2.53442 272.937L17.8764 254.964M2.53442 272.937H102.853M-46.6886 221.632H46.3297M-46.6886 221.632L-31.2701 206.15M-46.6886 221.632H-139.708M-46.6886 221.632L-62.8734 237.884M46.3297 221.632L59.5459 206.15M46.3297 221.632L32.4565 237.884M46.3297 221.632H139.348M-31.2701 206.15H59.5459M-31.2701 206.15H-122.087M-31.2701 206.15L-16.5653 191.385M59.5459 206.15L72.1502 191.385M59.5459 206.15H150.362M10.8938 163.812H95.6873M10.8938 163.812L23.7331 150.921M10.8938 163.812H-73.8984M10.8938 163.812L-2.52486 177.287M95.6873 163.812L106.691 150.921M95.6873 163.812L84.1851 177.287M95.6873 163.812H180.479M23.7331 150.921H106.691M23.7331 150.921H-59.2263M23.7331 150.921L36.0286 138.575M106.691 150.921L117.23 138.575M106.691 150.921H189.65M59.1196 115.388H137.024M59.1196 115.388L69.976 104.487M59.1196 115.388H-18.7833M59.1196 115.388L47.8127 126.741M137.024 115.388L135.833 116.781L127.332 126.741M137.024 115.388L146.328 104.487M137.024 115.388H214.927M69.976 104.487H146.328M69.976 104.487H-6.37595M69.976 104.487L80.409 94.0111M146.328 104.487L155.271 94.0111M146.328 104.487H222.681M100.098 74.2408H172.147M100.098 74.2408L109.398 64.9028M100.098 74.2408H28.0488M100.098 74.2408L90.4425 83.9361M172.147 74.2408L180.118 64.9028M172.147 74.2408L169.081 77.8341L167.011 80.258L163.871 83.9361M172.147 74.2408H244.196M109.398 64.9028H180.118M109.398 64.9028H38.6772M109.398 64.9028L118.36 55.9028M180.118 64.9028L183.033 61.4889L184.954 59.2388L187.802 55.9028M180.118 64.9028H250.839M135.348 38.8455H202.361M135.348 38.8455L141.416 32.7532L143.403 30.7563M135.348 38.8455H68.3345M135.348 38.8455L128.064 46.1588L127.006 47.2226M202.361 38.8455L207.563 32.7532L208.416 31.752L209.267 30.7563M202.361 38.8455L198.817 42.9965L195.211 47.2226M202.361 38.8455H269.375M143.403 30.7563H209.267M143.403 30.7563L151.188 22.9411M143.403 30.7563H77.5408M209.267 30.7563H275.129M209.267 30.7563L215.938 22.9411M62.5075 837.543H243.152M62.5075 837.543L86.8846 780.428M62.5075 837.543H-118.137M62.5075 837.543L35.7198 900.305M243.152 837.543L259.405 780.428M243.152 837.543L225.295 900.305M243.152 837.543H423.798M86.8846 780.428H259.405M86.8846 780.428H-85.6344M86.8846 780.428L109.164 728.229M259.405 780.428L274.257 728.229M259.405 780.428H431.924M148.424 636.246H300.43M148.424 636.246L165.809 595.513M148.424 636.246H-3.5829M148.424 636.246L129.604 680.34M300.43 636.246L312.02 595.513M300.43 636.246L287.884 680.34M300.43 636.246H452.437M165.809 595.513H312.02M165.809 595.513H19.5974M165.809 595.513L181.917 557.774M312.02 595.513L322.759 557.774M312.02 595.513H458.231M210.826 490.04H342.031M210.826 490.04L223.847 459.534M210.826 490.04H79.6215M210.826 490.04L196.884 522.707M342.031 490.04L350.712 459.534M342.031 490.04L332.737 522.707M342.031 490.04H473.238M223.847 459.534H350.712M223.847 459.534H96.9819M223.847 459.534L236.034 430.982M350.712 459.534L358.837 430.982M350.712 459.534H477.578M258.207 379.031H373.618M258.207 379.031L268.321 355.334M258.207 379.031H142.794M258.207 379.031L247.464 404.201M373.618 379.031L380.361 355.334M373.618 379.031L366.457 404.201M373.618 379.031H489.03M268.321 355.334H380.361M268.321 355.334H156.281M268.321 355.334L277.862 332.98M380.361 355.334L386.722 332.98M380.361 355.334H492.403M295.405 291.876H398.418M295.405 291.876L303.488 272.937M295.405 291.876H192.392M295.405 291.876L286.875 311.862M398.418 291.876L403.806 272.937M398.418 291.876L392.732 311.862M398.418 291.876H501.431M303.488 272.937H403.806M303.488 272.937H203.171M303.488 272.937L311.16 254.964M403.806 272.937L408.921 254.964M403.806 272.937H504.125M325.386 221.632H418.405M325.386 221.632L331.994 206.15M325.386 221.632H232.368M325.386 221.632L318.45 237.884M418.405 221.632L422.811 206.15M418.405 221.632L413.78 237.884M418.405 221.632H511.424M331.994 206.15H422.811M331.994 206.15H241.178M331.994 206.15L334.393 200.532L338.296 191.385M422.811 206.15L427.012 191.385M422.811 206.15H513.627M350.065 163.812H434.857M350.065 163.812L355.568 150.921M350.065 163.812H265.272M350.065 163.812L345.776 173.862L344.313 177.287M434.857 163.812L436.252 158.911L438.526 150.921M434.857 163.812L431.023 177.287M434.857 163.812H519.651M355.568 150.921L356.238 149.348L360.837 138.575M355.568 150.921H438.526M355.568 150.921H272.608M438.526 150.921L439.861 146.229L440.3 144.681L440.739 143.143L442.038 138.575M438.526 150.921H521.485M370.733 115.388H448.636M370.733 115.388L373.082 109.882L373.663 108.524L374.24 107.171L374.815 105.826L375.385 104.487M370.733 115.388H292.83M370.733 115.388L365.887 126.741M448.636 115.388L450.974 107.171L451.358 105.826L451.737 104.487M448.636 115.388L445.406 126.741M448.636 115.388H526.54M375.385 104.487H451.737M375.385 104.487H299.033M375.385 104.487L378.201 97.8909L378.755 96.5907L379.857 94.0111M451.737 104.487L453.614 97.8909L453.985 96.5907L454.352 95.2975L454.719 94.0111M451.737 104.487H528.091M388.296 74.2408H460.345M388.296 74.2408L392.281 64.9028M388.296 74.2408H316.245M388.296 74.2408L387.274 76.6299L385.726 80.258L384.157 83.9361M460.345 74.2408L460.005 75.4326L457.935 82.7041L457.586 83.9361M460.345 74.2408L463.002 64.9028M460.345 74.2408H532.394M392.281 64.9028H463.002M392.281 64.9028H321.561M392.281 64.9028L396.122 55.9028M463.002 64.9028L463.973 61.4889L464.293 60.3611L464.614 59.2388L465.563 55.9028M463.002 64.9028H533.722M403.403 38.8455H470.415M403.403 38.8455L406.003 32.7532L406.854 30.7563M403.403 38.8455H336.389M403.403 38.8455L402.075 41.9521L401.631 42.9965L401.182 44.0464L399.826 47.2226M470.415 38.8455L470.708 37.8192L471.287 35.7792L471.864 33.7573L472.717 30.7563M470.415 38.8455L469.234 42.9965L468.936 44.0464L468.334 46.1588L468.033 47.2226M470.415 38.8455H537.429M406.854 30.7563H472.717M406.854 30.7563L409.779 23.9034L410.191 22.9411M406.854 30.7563H340.992M472.717 30.7563L473 29.7648L473.28 28.7775L473.561 27.7943L473.838 26.8153L474.667 23.9034L474.942 22.9411M472.717 30.7563H538.58M785.087 837.543H965.733M785.087 837.543L776.962 780.428M785.087 837.543H604.443M785.087 837.543L794.017 900.305M965.733 837.543L949.482 780.428M965.733 837.543L983.591 900.305M965.733 837.543H1146.38M776.962 780.428H949.482M776.962 780.428H604.443M776.962 780.428L769.536 728.229M949.482 780.428L934.629 728.229M949.482 780.428H1122M756.449 636.246H908.456M756.449 636.246L750.654 595.513M756.449 636.246H604.443M756.449 636.246L762.723 680.34M908.456 636.246L896.865 595.513M908.456 636.246L921.002 680.34M908.456 636.246H1060.46M750.654 595.513H896.865M750.654 595.513H604.443M750.654 595.513L745.285 557.774M896.865 595.513L886.127 557.774M896.865 595.513H1043.08M735.648 490.04H866.854M735.648 490.04L731.308 459.534M735.648 490.04H604.443M735.648 490.04L740.296 522.707M866.854 490.04L858.173 459.534M866.854 490.04L876.148 522.707M866.854 490.04H998.059M731.308 459.534H858.173M731.308 459.534H604.443M731.308 459.534L727.246 430.982M858.173 459.534L850.049 430.982M858.173 459.534H985.039M719.855 379.031H835.268M719.855 379.031L716.483 355.334M719.855 379.031H604.443M719.855 379.031L723.436 404.201M835.268 379.031L828.524 355.334M835.268 379.031L842.429 404.201M835.268 379.031H950.679M716.483 355.334H828.524M716.483 355.334H604.443M716.483 355.334L713.303 332.98M828.524 355.334L822.164 332.98M828.524 355.334H940.565M707.455 291.876H810.467M707.455 291.876L704.761 272.937M707.455 291.876H604.443M707.455 291.876L710.299 311.862M810.467 291.876L805.079 272.937M810.467 291.876L816.154 311.862M810.467 291.876H913.481M704.761 272.937H805.079M704.761 272.937H604.443M704.761 272.937L702.203 254.964M805.079 272.937L799.965 254.964M805.079 272.937H905.398M697.461 221.632H790.481M697.461 221.632L695.259 206.15M697.461 221.632H604.443M697.461 221.632L699.774 237.884M790.481 221.632L786.075 206.15M790.481 221.632L795.105 237.884M790.481 221.632H883.499M695.259 206.15H786.075M695.259 206.15H604.443M695.259 206.15L693.158 191.385M786.075 206.15L781.874 191.385M786.075 206.15H876.892M689.235 163.812H774.028M689.235 163.812L687.401 150.921M689.235 163.812H604.443M689.235 163.812L691.153 177.287M774.028 163.812L770.809 152.502L770.36 150.921M774.028 163.812L777.862 177.287M774.028 163.812H858.821M687.401 150.921L687.178 149.348L685.645 138.575M687.401 150.921H770.36M687.401 150.921H604.443M770.36 150.921L769.024 146.229L768.585 144.681L768.146 143.143L766.847 138.575M770.36 150.921H853.318M682.346 115.388H760.25M682.346 115.388L680.795 104.487M682.346 115.388H604.443M682.346 115.388L682.944 119.59L683.146 121.006L683.347 122.428L683.755 125.296L683.962 126.741M760.25 115.388L757.912 107.171L757.147 104.487M760.25 115.388L763.479 126.741M760.25 115.388H838.153M680.795 104.487H757.147M680.795 104.487H604.443M680.795 104.487L679.305 94.0111M757.147 104.487L755.271 97.8909L754.9 96.5907L754.534 95.2975L754.167 94.0111M757.147 104.487H833.5M676.492 74.2408H748.541M676.492 74.2408L675.163 64.9028M676.492 74.2408H604.443M676.492 74.2408L677.871 83.9361M748.541 74.2408L748.881 75.4326L750.95 82.7041L751.3 83.9361M748.541 74.2408L745.884 64.9028M748.541 74.2408H820.59M675.163 64.9028H745.884M675.163 64.9028H604.443M675.163 64.9028L673.883 55.9028M745.884 64.9028L744.912 61.4889L744.592 60.3611L744.272 59.2388L743.323 55.9028M745.884 64.9028H816.604M671.457 38.8455H738.471M671.457 38.8455L670.305 30.7563M671.457 38.8455H604.443M671.457 38.8455L672.648 47.2226M738.471 38.8455L738.177 37.8192L737.597 35.7792L737.309 34.7654L736.735 32.7532L736.452 31.752L736.167 30.7563M738.471 38.8455L739.652 42.9965L739.949 44.0464L740.551 46.1588L740.853 47.2226M738.471 38.8455H805.483M670.305 30.7563L670.165 29.7648L670.023 28.7775L669.885 27.7943L669.193 22.9411M670.305 30.7563H736.167M670.305 30.7563H604.443M736.167 30.7563H802.031M736.167 30.7563L735.605 28.7775L735.325 27.7943L735.047 26.8153L734.219 23.9034L733.944 22.9411M1507.67 837.543H1688.31M1507.67 837.543L1467.04 780.428M1507.67 837.543H1327.02M1507.67 837.543L1552.32 900.305M1688.31 837.543L1639.56 780.428M1688.31 837.543L1741.89 900.305M1688.31 837.543H1868.96M1467.04 780.428H1639.56M1467.04 780.428H1294.52M1467.04 780.428L1429.91 728.229M1639.56 780.428L1595 728.229M1639.56 780.428H1812.08M1364.47 636.246H1516.48M1364.47 636.246L1335.5 595.513M1364.47 636.246H1212.47M1364.47 636.246L1395.84 680.34M1516.48 636.246L1481.71 595.513M1516.48 636.246L1554.12 680.34M1516.48 636.246H1668.49M1335.5 595.513H1481.71M1335.5 595.513H1189.29M1335.5 595.513L1308.65 557.774M1481.71 595.513L1449.49 557.774M1481.71 595.513H1627.92M1260.47 490.04H1391.68M1260.47 490.04L1238.77 459.534M1260.47 490.04H1129.26M1260.47 490.04L1283.71 522.707M1391.68 490.04L1365.64 459.534M1391.68 490.04L1419.56 522.707M1391.68 490.04H1522.88M1238.77 459.534H1365.64M1238.77 459.534H1111.9M1238.77 459.534L1218.46 430.982M1365.64 459.534L1341.26 430.982M1365.64 459.534H1492.5M1181.5 379.031H1296.92M1181.5 379.031L1164.65 355.334M1181.5 379.031H1066.09M1181.5 379.031L1199.41 404.201M1296.92 379.031L1276.69 355.334M1296.92 379.031L1318.4 404.201M1296.92 379.031H1412.33M1164.65 355.334H1276.69M1164.65 355.334H1052.6M1164.65 355.334L1148.74 332.98M1276.69 355.334L1257.61 332.98M1276.69 355.334H1388.73M1119.51 291.876H1222.52M1119.51 291.876L1106.03 272.937M1119.51 291.876H1016.49M1119.51 291.876L1133.72 311.862M1222.52 291.876L1206.35 272.937M1222.52 291.876L1239.58 311.862M1222.52 291.876H1325.53M1106.03 272.937H1206.35M1106.03 272.937H1005.71M1106.03 272.937L1093.25 254.964M1206.35 272.937L1191.01 254.964M1206.35 272.937H1306.67M1069.54 221.632H1162.56M1069.54 221.632L1058.52 206.15M1069.54 221.632H976.518M1069.54 221.632L1081.1 237.884M1162.56 221.632L1149.34 206.15M1162.56 221.632L1176.43 237.884M1162.56 221.632H1255.57M1058.52 206.15H1149.34M1058.52 206.15H967.708M1058.52 206.15L1048.02 191.385M1149.34 206.15L1136.74 191.385M1149.34 206.15H1240.16M1028.41 163.812L1029.58 165.464L1030.76 167.124L1037.99 177.287M1028.41 163.812H1113.2M1028.41 163.812L1019.24 150.921M1028.41 163.812H943.614M1113.2 163.812L1102.19 150.921M1113.2 163.812L1124.7 177.287M1113.2 163.812H1197.99M1019.24 150.921H1102.19M1019.24 150.921H936.277M1019.24 150.921L1010.45 138.575M1102.19 150.921L1091.66 138.575M1102.19 150.921H1185.15M993.959 115.388H1071.86M993.959 115.388L986.204 104.487M993.959 115.388H916.056M993.959 115.388L1002.03 126.741M1071.86 115.388L1066 108.524L1062.56 104.487M1071.86 115.388L1081.55 126.741M1071.86 115.388H1149.77M986.204 104.487H1062.56M986.204 104.487H909.852M986.204 104.487L979.669 95.2975L978.753 94.0111M1062.56 104.487L1053.61 94.0111M1062.56 104.487H1138.91M964.689 74.2408H1036.74M964.689 74.2408L963.005 71.8726L958.047 64.9028M964.689 74.2408H892.641M964.689 74.2408L966.389 76.6299L969.838 81.4775L971.586 83.9361M1036.74 74.2408L1028.77 64.9028M1036.74 74.2408L1039.81 77.8341L1041.87 80.258L1045.01 83.9361M1036.74 74.2408H1108.79M958.047 64.9028H1028.77M958.047 64.9028H887.325M958.047 64.9028L953.223 58.1208L951.643 55.9028M1028.77 64.9028L1025.85 61.4889L1023.93 59.2388L1021.08 55.9028M1028.77 64.9028H1099.49M939.511 38.8455H1006.52M939.511 38.8455L935.891 33.7573L933.756 30.7563M939.511 38.8455H872.497M939.511 38.8455L945.469 47.2226M1006.52 38.8455L1001.32 32.7532L1000.47 31.752L999.618 30.7563M1006.52 38.8455L1010.07 42.9965L1013.67 47.2226M1006.52 38.8455H1073.54M933.756 30.7563H999.618M933.756 30.7563L930.953 26.8153L929.569 24.8698L928.881 23.9034L928.197 22.9411M933.756 30.7563H867.894M999.618 30.7563H1065.48M999.618 30.7563L992.947 22.9411M1920.35 595.513H1774.13M1920.35 595.513L1872.02 557.774M1920.35 595.513H1964.15M1920.35 595.513L1964.15 629.727M1785.29 490.04H1916.5M1785.29 490.04L1746.23 459.534M1785.29 490.04H1654.09M1785.29 490.04L1827.12 522.707M1916.5 490.04L1873.1 459.534M1916.5 490.04L1962.97 522.707M1916.5 490.04H1964.15M1746.23 459.534H1873.1M1746.23 459.534H1619.37M1746.23 459.534L1709.67 430.982M1873.1 459.534L1832.47 430.982M1873.1 459.534H1964.15M1643.15 379.031H1758.57M1643.15 379.031L1612.81 355.334M1643.15 379.031H1527.74M1643.15 379.031L1675.38 404.201M1758.57 379.031L1724.85 355.334M1758.57 379.031L1794.37 404.201M1758.57 379.031H1873.98M1612.81 355.334H1724.85M1612.81 355.334H1500.77M1612.81 355.334L1584.19 332.98M1724.85 355.334L1693.05 332.98M1724.85 355.334H1836.89M1531.56 291.876H1634.57M1531.56 291.876L1507.31 272.937M1531.56 291.876H1428.54M1531.56 291.876L1557.15 311.862M1634.57 291.876L1607.62 272.937M1634.57 291.876L1663 311.862M1634.57 291.876H1737.58M1507.31 272.937H1607.62M1507.31 272.937H1406.99M1507.31 272.937L1484.29 254.964M1607.62 272.937L1582.05 254.964M1607.62 272.937H1707.94M1441.61 221.632H1534.63M1441.61 221.632L1421.79 206.15M1441.61 221.632H1348.59M1441.61 221.632L1462.42 237.884M1534.63 221.632L1512.6 206.15M1534.63 221.632L1557.75 237.884M1534.63 221.632H1627.65M1421.79 206.15H1512.6M1421.79 206.15H1330.97M1421.79 206.15L1402.88 191.385M1512.6 206.15L1491.6 191.385M1512.6 206.15H1603.42M1367.58 163.812H1452.37M1367.58 163.812L1351.07 150.921M1367.58 163.812H1282.78M1367.58 163.812L1384.83 177.287M1452.37 163.812L1434.03 150.921M1452.37 163.812L1471.54 177.287M1452.37 163.812H1537.16M1351.07 150.921H1434.03M1351.07 150.921H1268.11M1351.07 150.921L1335.26 138.575M1434.03 150.921L1416.46 138.575M1434.03 150.921H1516.99M1305.57 115.388H1383.47M1305.57 115.388L1291.61 104.487M1305.57 115.388H1227.67M1305.57 115.388L1320.11 126.741M1383.47 115.388L1367.97 104.487M1383.47 115.388L1399.63 126.741M1383.47 115.388H1461.38M1291.61 104.487H1367.97M1291.61 104.487H1215.26M1291.61 104.487L1278.2 94.0111M1367.97 104.487L1353.06 94.0111M1367.97 104.487H1444.32M1252.89 74.2408H1324.94M1252.89 74.2408L1240.93 64.9028M1252.89 74.2408H1180.84M1252.89 74.2408L1255.95 76.6299L1257.49 77.8341L1265.3 83.9361M1324.94 74.2408L1311.65 64.9028M1324.94 74.2408L1338.73 83.9361M1324.94 74.2408H1396.98M1240.93 64.9028H1311.65M1240.93 64.9028H1170.21M1240.93 64.9028L1229.41 55.9028M1311.65 64.9028L1298.85 55.9028M1311.65 64.9028H1382.37M1207.56 38.8455H1274.58M1207.56 38.8455L1197.21 30.7563M1207.56 38.8455H1140.55M1207.56 38.8455L1218.29 47.2226M1274.58 38.8455L1265.91 32.7532L1264.49 31.752L1263.07 30.7563M1274.58 38.8455L1286.5 47.2226M1274.58 38.8455H1341.59M1197.21 30.7563H1263.07M1197.21 30.7563L1188.43 23.9034L1187.2 22.9411M1197.21 30.7563H1131.34M1263.07 30.7563H1328.93M1263.07 30.7563L1251.95 22.9411M1943.61 291.876L1908.58 272.937M1943.61 291.876H1840.59M1943.61 291.876L1964.15 302.986M1943.61 291.876H1964.15M1908.58 272.937H1808.26M1908.58 272.937L1875.34 254.964M1908.58 272.937H1964.15M1813.69 221.632H1906.71M1813.69 221.632L1785.05 206.15M1813.69 221.632H1720.67M1813.69 221.632L1843.75 237.884M1906.71 221.632L1875.87 206.15M1906.71 221.632L1939.08 237.884M1906.71 221.632H1964.15M1785.05 206.15H1875.87M1785.05 206.15H1694.24M1785.05 206.15L1757.74 191.385M1875.87 206.15L1846.46 191.385M1875.87 206.15H1964.15M1706.75 163.812H1791.54M1706.75 163.812L1682.9 150.921M1706.75 163.812H1621.96M1706.75 163.812L1731.67 177.287M1791.54 163.812L1765.86 150.921M1791.54 163.812L1818.38 177.287M1791.54 163.812H1876.33M1682.9 150.921H1765.86M1682.9 150.921H1599.94M1682.9 150.921L1660.07 138.575M1765.86 150.921L1741.27 138.575M1765.86 150.921H1848.82M1617.18 115.388H1695.09M1617.18 115.388L1597.02 104.487M1617.18 115.388H1539.28M1617.18 115.388L1638.18 126.741M1695.09 115.388L1673.38 104.487M1695.09 115.388L1717.7 126.741M1695.09 115.388H1772.99M1597.02 104.487H1673.38M1597.02 104.487H1520.67M1597.02 104.487L1577.65 94.0111M1673.38 104.487L1652.51 94.0111M1673.38 104.487H1749.73M1541.08 74.2408H1613.13M1541.08 74.2408L1523.81 64.9028M1541.08 74.2408H1469.03M1541.08 74.2408L1559.02 83.9361M1613.13 74.2408L1594.53 64.9028M1613.13 74.2408L1632.44 83.9361M1613.13 74.2408H1685.18M1523.81 64.9028H1594.53M1523.81 64.9028H1453.09M1523.81 64.9028L1507.17 55.9028M1594.53 64.9028L1576.61 55.9028M1594.53 64.9028H1665.25M1475.62 38.8455H1542.63M1475.62 38.8455L1460.66 30.7563M1475.62 38.8455H1408.61M1475.62 38.8455L1491.11 47.2226M1542.63 38.8455L1526.52 30.7563M1542.63 38.8455L1559.32 47.2226M1542.63 38.8455H1609.65M1460.66 30.7563H1526.52M1460.66 30.7563L1446.2 22.9411M1460.66 30.7563H1394.8M1526.52 30.7563H1592.38M1526.52 30.7563L1510.95 22.9411M1928.8 115.388L1902.43 104.487M1928.8 115.388H1850.9M1928.8 115.388L1956.26 126.741M1928.8 115.388H1964.15M1902.43 104.487H1826.08M1902.43 104.487L1877.1 94.0111M1902.43 104.487H1964.15M1829.28 74.2408H1901.33M1829.28 74.2408L1806.69 64.9028M1829.28 74.2408H1757.23M1829.28 74.2408L1852.73 83.9361M1901.33 74.2408L1877.42 64.9028M1901.33 74.2408L1926.16 83.9361M1901.33 74.2408H1964.15M1806.69 64.9028H1877.42M1806.69 64.9028H1735.97M1806.69 64.9028L1784.93 55.9028M1877.42 64.9028L1854.37 55.9028M1877.42 64.9028H1948.14M1743.67 38.8455H1810.69M1743.67 38.8455L1724.11 30.7563M1743.67 38.8455H1676.66M1743.67 38.8455L1763.93 47.2226M1810.69 38.8455L1789.97 30.7563M1810.69 38.8455L1832.14 47.2226M1810.69 38.8455H1877.7M1724.11 30.7563H1789.97M1724.11 30.7563L1705.21 22.9411M1724.11 30.7563H1658.25M1789.97 30.7563H1855.84M1789.97 30.7563L1769.96 22.9411M1832.14 47.2226L1854.37 55.9028M1832.14 47.2226H1900.34M1832.14 47.2226H1763.93M1877.7 38.8455L1855.84 30.7563M1877.7 38.8455L1900.34 47.2226M1877.7 38.8455H1944.71M1855.84 30.7563H1921.7M1855.84 30.7563L1834.71 22.9411M1769.96 22.9411H1705.21M1769.96 22.9411H1834.71M1769.96 22.9411L1750.61 15.3845M1900.34 47.2226L1923.81 55.9028M1900.34 47.2226H1964.15M1944.71 38.8455L1921.7 30.7563M1944.71 38.8455L1964.15 45.677M1944.71 38.8455H1964.15M1921.7 30.7563L1899.46 22.9411M1921.7 30.7563H1964.15M1834.71 22.9411H1899.46M1834.71 22.9411L1814.28 15.3845M1899.46 22.9411L1877.96 15.3845M1899.46 22.9411H1964.15M1854.37 55.9028H1923.81M1854.37 55.9028H1784.93M1948.14 64.9028L1923.81 55.9028M1948.14 64.9028L1964.15 70.827M1948.14 64.9028H1964.15M1923.81 55.9028H1964.15M1784.93 55.9028H1715.49M1784.93 55.9028L1763.93 47.2226M1763.93 47.2226H1695.73M1926.16 83.9361L1951.96 94.0111M1926.16 83.9361H1852.73M1926.16 83.9361H1964.15M1964.37 74.2408H1964.15M1951.96 94.0111H1877.1M1951.96 94.0111L1964.15 98.7726M1951.96 94.0111H1964.15M1877.1 94.0111H1802.23M1877.1 94.0111L1852.73 83.9361M1852.73 83.9361H1779.3M1559.32 47.2226L1576.61 55.9028M1559.32 47.2226H1627.52M1559.32 47.2226H1491.11M1609.65 38.8455L1592.38 30.7563M1609.65 38.8455L1627.52 47.2226M1609.65 38.8455H1676.66M1592.38 30.7563H1658.25M1592.38 30.7563L1575.7 22.9411M1510.95 22.9411H1575.7M1510.95 22.9411L1495.9 15.3845M1510.95 22.9411H1446.2M1627.52 47.2226L1646.05 55.9028M1627.52 47.2226H1695.73M1676.66 38.8455L1658.25 30.7563M1676.66 38.8455L1695.73 47.2226M1658.25 30.7563L1640.46 22.9411M1575.7 22.9411H1640.46M1575.7 22.9411L1559.58 15.3845M1695.73 47.2226L1715.49 55.9028M1705.21 22.9411H1640.46M1705.21 22.9411L1686.93 15.3845M1640.46 22.9411L1623.25 15.3845M1576.61 55.9028H1646.05M1576.61 55.9028H1507.17M1665.25 64.9028L1646.05 55.9028M1665.25 64.9028L1685.18 74.2408M1665.25 64.9028H1735.97M1646.05 55.9028H1715.49M1507.17 55.9028H1437.73M1507.17 55.9028L1491.11 47.2226M1715.49 55.9028L1735.97 64.9028M1491.11 47.2226H1422.91M1685.18 74.2408L1705.87 83.9361M1685.18 74.2408H1757.23M1735.97 64.9028L1757.23 74.2408M1757.23 74.2408L1779.3 83.9361M1632.44 83.9361L1652.51 94.0111M1632.44 83.9361H1705.87M1632.44 83.9361H1559.02M1705.87 83.9361L1727.37 94.0111M1705.87 83.9361H1779.3M1779.3 83.9361L1802.23 94.0111M1652.51 94.0111H1727.37M1652.51 94.0111H1577.65M1749.73 104.487L1727.37 94.0111M1749.73 104.487L1772.99 115.388M1749.73 104.487H1826.08M1727.37 94.0111H1802.23M1577.65 94.0111H1502.79M1577.65 94.0111L1559.02 83.9361M1802.23 94.0111L1826.08 104.487M1559.02 83.9361H1485.59M1772.99 115.388L1797.22 126.741M1772.99 115.388H1850.9M1826.08 104.487L1850.9 115.388M1850.9 115.388L1876.74 126.741M1717.7 126.741L1741.27 138.575M1717.7 126.741H1797.22M1717.7 126.741H1638.18M1797.22 126.741L1822.47 138.575M1797.22 126.741H1876.74M1876.74 126.741L1903.68 138.575M1876.74 126.741H1956.26M1956.26 126.741H1964.15M1956.26 126.741L1964.15 130.005M1741.27 138.575H1822.47M1741.27 138.575H1660.07M1848.82 150.921L1822.47 138.575M1848.82 150.921L1876.33 163.812M1848.82 150.921H1931.78M1822.47 138.575H1903.68M1660.07 138.575H1578.87M1660.07 138.575L1638.18 126.741M1903.68 138.575L1931.78 150.921M1903.68 138.575H1964.15M1638.18 126.741H1558.67M1876.33 163.812L1905.09 177.287M1876.33 163.812H1961.13M1931.78 150.921L1961.13 163.812M1931.78 150.921H1964.15M1964.58 138.575H1964.15M1961.13 163.812L1964.15 165.142M1961.13 163.812H1964.15M1818.38 177.287L1846.46 191.385M1818.38 177.287H1905.09M1818.38 177.287H1731.67M1905.09 177.287L1935.17 191.385M1905.09 177.287H1964.15M1964.89 165.464L1964.15 165.142M1846.46 191.385H1935.17M1846.46 191.385H1757.74M1935.17 191.385H1964.15M1935.17 191.385L1964.15 204.964M1757.74 191.385H1669.03M1757.74 191.385L1731.67 177.287M1731.67 177.287H1644.96M1939.08 237.884H1843.75M1939.08 237.884L1964.15 250.474M1939.08 237.884H1964.15M1964.84 221.632H1964.15M1843.75 237.884H1748.41M1843.75 237.884L1875.34 254.964M1964.43 250.612L1964.15 250.474M1286.5 47.2226L1298.85 55.9028M1286.5 47.2226H1354.7M1286.5 47.2226H1218.29M1341.59 38.8455L1328.93 30.7563M1341.59 38.8455L1354.7 47.2226M1341.59 38.8455H1408.61M1328.93 30.7563H1394.8M1328.93 30.7563L1316.7 22.9411M1251.95 22.9411H1316.7M1251.95 22.9411L1247.88 20.0778L1241.2 15.3845M1251.95 22.9411H1187.2M1354.7 47.2226L1368.29 55.9028M1354.7 47.2226H1422.91M1408.61 38.8455L1394.8 30.7563M1408.61 38.8455L1422.91 47.2226M1394.8 30.7563L1381.45 22.9411M1316.7 22.9411H1381.45M1316.7 22.9411L1304.88 15.3845M1422.91 47.2226L1437.73 55.9028M1446.2 22.9411L1432.23 15.3845M1446.2 22.9411H1381.45M1381.45 22.9411L1379.82 21.9815L1376.56 20.0778L1368.55 15.3845M1298.85 55.9028H1368.29M1298.85 55.9028H1229.41M1382.37 64.9028L1368.29 55.9028M1382.37 64.9028L1396.98 74.2408M1382.37 64.9028H1453.09M1368.29 55.9028H1437.73M1229.41 55.9028H1159.97M1229.41 55.9028L1218.29 47.2226M1437.73 55.9028L1453.09 64.9028M1218.29 47.2226H1150.08M1396.98 74.2408L1412.16 83.9361M1396.98 74.2408H1469.03M1453.09 64.9028L1455.05 66.0501L1469.03 74.2408M1469.03 74.2408L1485.59 83.9361M1338.73 83.9361L1340.49 85.1752L1353.06 94.0111M1338.73 83.9361H1412.16M1338.73 83.9361H1265.3M1412.16 83.9361L1427.92 94.0111M1412.16 83.9361H1485.59M1485.59 83.9361L1502.79 94.0111M1353.06 94.0111H1427.92M1353.06 94.0111H1278.2M1444.32 104.487L1427.92 94.0111M1444.32 104.487L1461.38 115.388M1444.32 104.487H1520.67M1427.92 94.0111H1502.79M1278.2 94.0111H1203.34M1278.2 94.0111L1265.3 83.9361M1502.79 94.0111L1520.67 104.487M1265.3 83.9361H1191.87M1461.38 115.388L1479.15 126.741M1461.38 115.388H1539.28M1520.67 104.487L1539.28 115.388M1539.28 115.388L1558.67 126.741M1399.63 126.741L1416.46 138.575M1399.63 126.741H1479.15M1399.63 126.741H1320.11M1479.15 126.741L1497.67 138.575M1479.15 126.741H1558.67M1558.67 126.741L1578.87 138.575M1416.46 138.575H1497.67M1416.46 138.575H1335.26M1516.99 150.921L1497.67 138.575M1516.99 150.921L1537.16 163.812M1516.99 150.921H1599.94M1497.67 138.575H1578.87M1335.26 138.575H1254.06M1335.26 138.575L1320.11 126.741M1578.87 138.575L1599.94 150.921M1320.11 126.741H1240.59M1537.16 163.812L1558.25 177.287M1537.16 163.812H1621.96M1599.94 150.921L1621.96 163.812M1621.96 163.812L1644.96 177.287M1471.54 177.287L1491.6 191.385M1471.54 177.287H1558.25M1471.54 177.287H1384.83M1558.25 177.287L1580.31 191.385M1558.25 177.287H1644.96M1644.96 177.287L1669.03 191.385M1491.6 191.385H1580.31M1491.6 191.385H1402.88M1603.42 206.15L1580.31 191.385M1603.42 206.15L1627.65 221.632M1603.42 206.15H1694.24M1580.31 191.385H1669.03M1402.88 191.385H1314.17M1402.88 191.385L1384.83 177.287M1669.03 191.385L1694.24 206.15M1384.83 177.287H1298.12M1627.65 221.632L1653.08 237.884M1627.65 221.632H1720.67M1694.24 206.15L1720.67 221.632M1720.67 221.632L1748.41 237.884M1557.75 237.884L1582.05 254.964M1557.75 237.884H1653.08M1557.75 237.884H1462.42M1653.08 237.884L1679.81 254.964M1653.08 237.884H1748.41M1748.41 237.884L1777.57 254.964M1582.05 254.964H1679.81M1582.05 254.964H1484.29M1707.94 272.937L1679.81 254.964M1707.94 272.937L1737.58 291.876M1707.94 272.937H1808.26M1679.81 254.964H1777.57M1484.29 254.964H1386.53M1484.29 254.964L1462.42 237.884M1777.57 254.964L1808.26 272.937M1777.57 254.964H1875.34M1462.42 237.884H1367.09M1737.58 291.876L1768.86 311.862M1737.58 291.876H1840.59M1808.26 272.937L1840.59 291.876M1875.34 254.964H1964.15M1840.59 291.876L1874.71 311.862M1663 311.862L1693.05 332.98M1663 311.862H1768.86M1663 311.862H1557.15M1768.86 311.862L1801.91 332.98M1768.86 311.862H1874.71M1874.71 311.862L1910.77 332.98M1874.71 311.862H1964.15M1693.05 332.98H1801.91M1693.05 332.98H1584.19M1836.89 355.334L1801.91 332.98M1836.89 355.334L1873.98 379.031M1836.89 355.334H1948.93M1801.91 332.98H1910.77M1584.19 332.98H1475.33M1584.19 332.98L1557.15 311.862M1910.77 332.98L1948.93 355.334M1910.77 332.98H1964.15M1557.15 311.862H1451.29M1873.98 379.031L1913.37 404.201M1873.98 379.031H1964.15M1948.93 355.334H1964.15M1948.93 355.334L1964.15 364.25M1794.37 404.201L1832.47 430.982M1794.37 404.201H1913.37M1794.37 404.201H1675.38M1913.37 404.201L1955.28 430.982M1913.37 404.201H1964.15M1832.47 430.982H1955.28M1832.47 430.982H1709.67M1955.28 430.982L1964.15 436.653M1955.28 430.982H1964.15M1709.67 430.982H1586.87M1709.67 430.982L1675.38 404.201M1675.38 404.201H1556.39M1962.97 522.707H1827.12M1962.97 522.707H1964.15M1962.97 522.707L1964.15 523.536M1827.12 522.707H1691.27M1827.12 522.707L1872.02 557.774M1013.67 47.2226L1016.42 50.4404L1017.35 51.5238L1021.08 55.9028M1013.67 47.2226H1081.88M1013.67 47.2226H945.469M1073.54 38.8455L1067.47 32.7532L1065.48 30.7563M1073.54 38.8455L1080.82 46.1588L1081.88 47.2226M1073.54 38.8455H1140.55M1065.48 30.7563H1131.34M1065.48 30.7563L1057.7 22.9411M992.947 22.9411H1057.7M992.947 22.9411L990.503 20.0778L986.497 15.3845M992.947 22.9411H928.197M1081.88 47.2226L1084.01 49.3627L1090.53 55.9028M1081.88 47.2226H1150.08M1140.55 38.8455L1131.34 30.7563M1140.55 38.8455L1150.08 47.2226M1131.34 30.7563L1124.64 24.8698L1122.45 22.9411M1057.7 22.9411H1122.45M1057.7 22.9411L1050.17 15.3845M1150.08 47.2226L1159.97 55.9028M1187.2 22.9411L1185.97 21.9815L1177.52 15.3845M1187.2 22.9411H1122.45M1122.45 22.9411L1119.19 20.0778L1113.85 15.3845M1021.08 55.9028H1090.53M1021.08 55.9028H951.643M1099.49 64.9028L1090.53 55.9028M1099.49 64.9028L1108.79 74.2408M1099.49 64.9028H1170.21M1090.53 55.9028H1159.97M951.643 55.9028H882.203M951.643 55.9028L945.469 47.2226M1159.97 55.9028L1170.21 64.9028M945.469 47.2226H877.264M1108.79 74.2408L1114.78 80.258L1116 81.4775L1118.44 83.9361M1108.79 74.2408H1180.84M1170.21 64.9028L1180.84 74.2408M1180.84 74.2408L1191.87 83.9361M1045.01 83.9361L1053.61 94.0111M1045.01 83.9361H1118.44M1045.01 83.9361H971.586M1118.44 83.9361L1128.48 94.0111M1118.44 83.9361H1191.87M1191.87 83.9361L1203.34 94.0111M1053.61 94.0111H1128.48M1053.61 94.0111H978.753M1138.91 104.487L1132.34 97.8909L1131.05 96.5907L1128.48 94.0111M1138.91 104.487L1149.77 115.388M1138.91 104.487H1215.26M1128.48 94.0111H1203.34M978.753 94.0111H903.891M978.753 94.0111L971.586 83.9361M1203.34 94.0111L1215.26 104.487M971.586 83.9361H898.157M1149.77 115.388L1161.07 126.741M1149.77 115.388H1227.67M1215.26 104.487L1227.67 115.388M1227.67 115.388L1240.59 126.741M1081.55 126.741L1086.55 132.595L1087.82 134.079L1091.66 138.575M1081.55 126.741H1161.07M1081.55 126.741H1002.03M1161.07 126.741L1172.86 138.575M1161.07 126.741H1240.59M1240.59 126.741L1254.06 138.575M1091.66 138.575H1172.86M1091.66 138.575H1010.45M1185.15 150.921L1172.86 138.575M1185.15 150.921L1197.99 163.812M1185.15 150.921H1268.11M1172.86 138.575H1254.06M1010.45 138.575H929.251M1010.45 138.575L1008.31 135.57L1002.03 126.741M1254.06 138.575L1268.11 150.921M1002.03 126.741H922.517M1197.99 163.812L1211.41 177.287M1197.99 163.812H1282.78M1268.11 150.921L1282.78 163.812M1282.78 163.812L1298.12 177.287M1124.7 177.287L1136.74 191.385M1124.7 177.287H1211.41M1124.7 177.287H1037.99M1211.41 177.287L1225.45 191.385M1211.41 177.287H1298.12M1298.12 177.287L1314.17 191.385M1136.74 191.385H1225.45M1136.74 191.385H1048.02M1240.16 206.15L1225.45 191.385M1240.16 206.15L1255.57 221.632M1240.16 206.15H1330.97M1225.45 191.385H1314.17M1048.02 191.385H959.304M1048.02 191.385L1037.99 177.287M1314.17 191.385L1330.97 206.15M1037.99 177.287H951.282M1255.57 221.632L1271.76 237.884M1255.57 221.632H1348.59M1330.97 206.15L1348.59 221.632M1348.59 221.632L1367.09 237.884M1176.43 237.884L1191.01 254.964M1176.43 237.884H1271.76M1176.43 237.884H1081.1M1271.76 237.884L1288.77 254.964M1271.76 237.884H1367.09M1367.09 237.884L1386.53 254.964M1191.01 254.964H1288.77M1191.01 254.964H1093.25M1306.67 272.937L1288.77 254.964M1306.67 272.937L1325.53 291.876M1306.67 272.937H1406.99M1288.77 254.964H1386.53M1093.25 254.964H995.487M1093.25 254.964L1081.1 237.884M1386.53 254.964L1406.99 272.937M1081.1 237.884H985.767M1325.53 291.876L1345.43 311.862M1325.53 291.876H1428.54M1406.99 272.937L1428.54 291.876M1428.54 291.876L1451.29 311.862M1239.58 311.862L1257.61 332.98M1239.58 311.862H1345.43M1239.58 311.862H1133.72M1345.43 311.862L1366.47 332.98M1345.43 311.862H1451.29M1451.29 311.862L1475.33 332.98M1257.61 332.98H1366.47M1257.61 332.98H1148.74M1388.73 355.334L1366.47 332.98M1388.73 355.334L1412.33 379.031M1388.73 355.334H1500.77M1366.47 332.98H1475.33M1148.74 332.98H1039.88M1148.74 332.98L1133.72 311.862M1475.33 332.98L1500.77 355.334M1133.72 311.862H1027.87M1412.33 379.031L1437.39 404.201M1412.33 379.031H1527.74M1500.77 355.334L1527.74 379.031M1527.74 379.031L1556.39 404.201M1318.4 404.201L1341.26 430.982M1318.4 404.201H1437.39M1318.4 404.201H1199.41M1437.39 404.201L1464.06 430.982M1437.39 404.201H1556.39M1556.39 404.201L1586.87 430.982M1341.26 430.982H1464.06M1341.26 430.982H1218.46M1492.5 459.534L1464.06 430.982M1492.5 459.534L1522.88 490.04M1492.5 459.534H1619.37M1464.06 430.982H1586.87M1218.46 430.982H1095.66M1218.46 430.982L1199.41 404.201M1586.87 430.982L1619.37 459.534M1199.41 404.201H1080.42M1522.88 490.04L1555.41 522.707M1522.88 490.04H1654.09M1619.37 459.534L1654.09 490.04M1654.09 490.04L1691.27 522.707M1419.56 522.707L1449.49 557.774M1419.56 522.707H1555.41M1419.56 522.707H1283.71M1555.41 522.707L1590.34 557.774M1555.41 522.707H1691.27M1691.27 522.707L1731.18 557.774M1449.49 557.774H1590.34M1449.49 557.774H1308.65M1627.92 595.513L1590.34 557.774M1627.92 595.513L1668.49 636.246M1627.92 595.513H1774.13M1590.34 557.774H1731.18M1308.65 557.774H1167.81M1308.65 557.774L1283.71 522.707M1731.18 557.774L1774.13 595.513M1731.18 557.774H1872.02M1283.71 522.707H1147.86M1668.49 636.246L1712.4 680.34M1668.49 636.246H1820.49M1774.13 595.513L1820.49 636.246M1872.02 557.774H1964.15M1820.49 636.246L1870.68 680.34M1820.49 636.246H1964.15M1554.12 680.34L1595 728.229M1554.12 680.34H1712.4M1554.12 680.34H1395.84M1712.4 680.34L1760.09 728.229M1712.4 680.34H1870.68M1870.68 680.34L1925.19 728.229M1870.68 680.34H1964.15M1595 728.229H1760.09M1595 728.229H1429.91M1812.08 780.428L1760.09 728.229M1812.08 780.428L1868.96 837.543M1812.08 780.428H1964.15M1760.09 728.229H1925.19M1429.91 728.229H1264.81M1429.91 728.229L1395.84 680.34M1925.19 728.229H1964.15M1925.19 728.229L1964.15 762.466M1395.84 680.34H1237.56M1868.96 837.543L1931.46 900.305M1868.96 837.543H1964.15M1741.89 900.305L1801.04 969.595M1741.89 900.305H1931.46M1741.89 900.305H1552.32M1931.46 900.305L1964.15 933.131M1931.46 900.305H1964.15M1801.04 969.595H1601.6M1801.04 969.595L1964.15 969.594M1601.6 969.595H1402.17M1601.6 969.595L1552.32 900.305M1552.32 900.305H1362.74M740.853 47.2226L741.157 48.2906L741.462 49.3627L741.769 50.4404L742.077 51.5238L743.01 54.8L743.323 55.9028M740.853 47.2226H809.059M740.853 47.2226H672.648M805.483 38.8455L802.883 32.7532L802.031 30.7563M805.483 38.8455L807.704 44.0464L809.059 47.2226M805.483 38.8455H872.497M802.031 30.7563H867.894M802.031 30.7563L799.519 24.8698L798.694 22.9411M733.944 22.9411L733.672 21.9815L732.593 18.188L731.794 15.3845M733.944 22.9411H798.694M733.944 22.9411H669.193M809.059 47.2226L809.514 48.2906L809.973 49.3627L810.432 50.4404L810.895 51.5238L812.763 55.9028M809.059 47.2226H877.264M872.497 38.8455L869.03 32.7532L867.894 30.7563M872.497 38.8455L877.264 47.2226M867.894 30.7563L865.65 26.8153L863.993 23.9034L863.446 22.9411M798.694 22.9411L798.286 21.9815L797.474 20.0778L796.666 18.188L796.267 17.2493L795.469 15.3845M798.694 22.9411H863.446M877.264 47.2226L880.953 53.7028L882.203 55.9028M928.197 22.9411L924.149 17.2493L922.822 15.3845M928.197 22.9411H863.446M863.446 22.9411L859.676 16.3148L859.145 15.3845M743.323 55.9028H812.763M743.323 55.9028H673.883M816.604 64.9028L812.763 55.9028M816.604 64.9028L820.59 74.2408M816.604 64.9028H887.325M812.763 55.9028H882.203M673.883 55.9028H604.443M673.883 55.9028L672.648 47.2226M882.203 55.9028L887.325 64.9028M672.648 47.2226H604.443M820.59 74.2408L821.611 76.6299L823.159 80.258L824.729 83.9361M820.59 74.2408H892.641M887.325 64.9028L887.979 66.0501L892.641 74.2408M892.641 74.2408L893.317 75.4326L894 76.6299L894.684 77.8341L898.157 83.9361M751.3 83.9361L754.167 94.0111M751.3 83.9361H824.729M751.3 83.9361H677.871M824.729 83.9361L829.029 94.0111M824.729 83.9361H898.157M898.157 83.9361L902.436 91.4552L903.163 92.7304L903.891 94.0111M754.167 94.0111H829.029M754.167 94.0111H679.305M833.5 104.487L834.071 105.826L834.646 107.171L835.222 108.524L838.153 115.388M833.5 104.487L831.243 99.1967L830.684 97.8909L830.131 96.5907L829.029 94.0111M833.5 104.487H909.852M829.029 94.0111H903.891M679.305 94.0111H604.443M679.305 94.0111L677.871 83.9361M903.891 94.0111L909.852 104.487M677.871 83.9361H604.443M838.153 115.388L842.382 125.296L842.998 126.741M838.153 115.388H916.056M909.852 104.487L911.38 107.171L916.056 115.388M916.056 115.388L918.448 119.59L922.517 126.741M763.479 126.741L765.146 132.595L765.567 134.079L766.847 138.575M763.479 126.741H842.998M763.479 126.741H683.962M842.998 126.741L848.049 138.575M842.998 126.741H922.517M922.517 126.741L929.251 138.575M766.847 138.575H848.049M766.847 138.575H685.645M853.318 150.921L848.049 138.575M853.318 150.921L858.821 163.812M853.318 150.921H936.277M848.049 138.575H929.251M685.645 138.575H604.443M685.645 138.575L685.217 135.57L684.375 129.653L683.962 126.741M929.251 138.575L936.277 150.921M683.962 126.741H604.443M858.821 163.812L863.109 173.862L864.572 177.287M858.821 163.812H943.614M936.277 150.921L943.614 163.812M943.614 163.812L947.404 170.474L951.282 177.287M777.862 177.287L781.874 191.385M777.862 177.287H864.572M777.862 177.287H691.153M864.572 177.287L870.589 191.385M864.572 177.287H951.282M951.282 177.287L959.304 191.385M781.874 191.385H870.589M781.874 191.385H693.158M876.892 206.15L875.287 202.394L870.589 191.385M876.892 206.15L883.499 221.632M876.892 206.15H967.708M870.589 191.385H959.304M693.158 191.385H604.443M693.158 191.385L691.153 177.287M959.304 191.385L967.708 206.15M691.153 177.287H604.443M883.499 221.632L890.435 237.884M883.499 221.632H976.518M967.708 206.15L976.518 221.632M976.518 221.632L985.767 237.884M795.105 237.884L799.965 254.964M795.105 237.884H890.435M795.105 237.884H699.774M890.435 237.884L897.725 254.964M890.435 237.884H985.767M985.767 237.884L995.487 254.964M799.965 254.964H897.725M799.965 254.964H702.203M905.398 272.937L897.725 254.964M905.398 272.937L913.481 291.876M905.398 272.937H1005.71M897.725 254.964H995.487M702.203 254.964H604.443M702.203 254.964L700.07 239.973L699.774 237.884M995.487 254.964L1005.71 272.937M699.774 237.884H604.443M913.481 291.876L922.01 311.862M913.481 291.876H1016.49M1005.71 272.937L1013.74 287.048L1016.49 291.876M1016.49 291.876L1027.87 311.862M816.154 311.862L822.164 332.98M816.154 311.862H922.01M816.154 311.862H710.299M922.01 311.862L931.024 332.98M922.01 311.862H1027.87M1027.87 311.862L1039.88 332.98M822.164 332.98H931.024M822.164 332.98H713.303M940.565 355.334L931.024 332.98M940.565 355.334L950.679 379.031M940.565 355.334H1052.6M931.024 332.98H1039.88M713.303 332.98H604.443M713.303 332.98L710.299 311.862M1039.88 332.98L1052.6 355.334M710.299 311.862H604.443M950.679 379.031L961.422 404.201M950.679 379.031H1066.09M1052.6 355.334L1066.09 379.031M1066.09 379.031L1080.42 404.201M842.429 404.201L850.049 430.982M842.429 404.201H961.422M842.429 404.201H723.436M961.422 404.201L972.852 430.982M961.422 404.201H1080.42M1080.42 404.201L1095.66 430.982M850.049 430.982H972.852M850.049 430.982H727.246M985.039 459.534L972.852 430.982M985.039 459.534L998.059 490.04M985.039 459.534H1111.9M972.852 430.982H1095.66M727.246 430.982H604.443M727.246 430.982L723.436 404.201M1095.66 430.982L1111.9 459.534M723.436 404.201H604.443M998.059 490.04L1012 522.707M998.059 490.04H1129.26M1111.9 459.534L1129.26 490.04M1129.26 490.04L1147.86 522.707M876.148 522.707L886.127 557.774M876.148 522.707H1012M876.148 522.707H740.296M1012 522.707L1026.97 557.774M1012 522.707H1147.86M1147.86 522.707L1167.81 557.774M886.127 557.774H1026.97M886.127 557.774H745.285M1043.08 595.513L1026.97 557.774M1043.08 595.513L1060.46 636.246M1043.08 595.513H1189.29M1026.97 557.774H1167.81M745.285 557.774H604.443M745.285 557.774L740.296 522.707M1167.81 557.774L1189.29 595.513M740.296 522.707H604.443M1060.46 636.246L1079.28 680.34M1060.46 636.246H1212.47M1189.29 595.513L1212.47 636.246M1212.47 636.246L1237.56 680.34M921.002 680.34L934.629 728.229M921.002 680.34H1079.28M921.002 680.34H762.723M1079.28 680.34L1099.72 728.229M1079.28 680.34H1237.56M1237.56 680.34L1264.81 728.229M934.629 728.229H1099.72M934.629 728.229H769.536M1122 780.428L1099.72 728.229M1122 780.428L1146.38 837.543M1122 780.428H1294.52M1099.72 728.229H1264.81M769.536 728.229H604.443M769.536 728.229L762.723 680.34M1264.81 728.229L1294.52 780.428M762.723 680.34H604.443M1146.38 837.543L1173.17 900.305M1146.38 837.543H1327.02M1294.52 780.428L1327.02 837.543M1327.02 837.543L1362.74 900.305M983.591 900.305L1003.31 969.595M983.591 900.305H1173.17M983.591 900.305H794.017M1173.17 900.305L1202.74 969.595M1173.17 900.305H1362.74M1362.74 900.305L1402.17 969.595M1202.74 969.595H1003.31M1202.74 969.595H1402.17M1003.31 969.595H803.876M803.876 969.595H604.443M803.876 969.595L794.017 900.305M794.017 900.305H604.443M468.033 47.2226L467.728 48.2906L467.424 49.3627L467.116 50.4404L466.809 51.5238L466.189 53.7028L465.876 54.8L465.563 55.9028M468.033 47.2226H536.238M468.033 47.2226H399.826M537.429 38.8455L538.58 30.7563M537.429 38.8455L536.238 47.2226M537.429 38.8455H604.443M538.58 30.7563L538.721 29.7648L538.862 28.7775L539.001 27.7943L539.692 22.9411M538.58 30.7563H604.443M474.942 22.9411L475.214 21.9815L476.293 18.188L477.092 15.3845M474.942 22.9411H539.692M474.942 22.9411H410.191M536.238 47.2226L536.085 48.2906L535.933 49.3627L535.779 50.4404L535.003 55.9028M536.238 47.2226H604.443M604.443 38.8455V30.7563M604.443 38.8455V47.2226M604.443 30.7563V22.9411M539.692 22.9411H604.443M539.692 22.9411L540.099 20.0778L540.235 19.1308L540.767 15.3845M604.443 47.2226V55.9028M669.193 22.9411L668.787 20.0778L668.651 19.1308L668.518 18.188L668.383 17.2493L668.252 16.3148L668.118 15.3845M669.193 22.9411H604.443M604.443 22.9411V15.3845M465.563 55.9028H535.003M465.563 55.9028H396.122M533.722 64.9028L533.558 66.0501L533.395 67.2043L532.394 74.2408M533.722 64.9028L535.003 55.9028M533.722 64.9028H604.443M535.003 55.9028H604.443M396.122 55.9028H326.682M396.122 55.9028L397.06 53.7028L397.527 52.6112L397.991 51.5238L398.454 50.4404L398.913 49.3627L399.372 48.2906L399.826 47.2226M604.443 55.9028V64.9028M399.826 47.2226H331.621M532.394 74.2408L531.014 83.9361M532.394 74.2408H604.443M604.443 64.9028V74.2408M604.443 74.2408V83.9361M457.586 83.9361L454.719 94.0111M457.586 83.9361H531.014M457.586 83.9361H384.157M531.014 83.9361L529.581 94.0111M531.014 83.9361H604.443M604.443 83.9361V94.0111M454.719 94.0111H529.581M454.719 94.0111H379.857M528.091 104.487L529.581 94.0111M528.091 104.487L526.54 115.388M528.091 104.487H604.443M529.581 94.0111H604.443M379.857 94.0111H304.995M379.857 94.0111L384.157 83.9361M604.443 94.0111V104.487M384.157 83.9361H310.728M526.54 115.388L525.942 119.59L525.335 123.858L524.924 126.741M526.54 115.388H604.443M604.443 104.487V115.388M604.443 115.388V126.741M445.406 126.741L443.739 132.595L443.319 134.079L442.038 138.575M445.406 126.741H524.924M445.406 126.741H365.887M524.924 126.741L524.51 129.653L523.669 135.57L523.241 138.575M524.924 126.741H604.443M604.443 126.741V138.575M442.038 138.575H523.241M442.038 138.575H360.837M521.485 150.921L521.707 149.348L523.241 138.575M521.485 150.921L519.651 163.812M521.485 150.921H604.443M523.241 138.575H604.443M360.837 138.575H279.635M360.837 138.575L365.887 126.741M604.443 138.575V150.921M365.887 126.741H286.368M519.651 163.812L517.733 177.287M519.651 163.812H604.443M604.443 150.921V163.812M604.443 163.812V177.287M431.023 177.287L427.012 191.385M431.023 177.287H517.733M431.023 177.287H344.313M517.733 177.287L515.727 191.385M517.733 177.287H604.443M604.443 177.287V191.385M427.012 191.385H515.727M427.012 191.385H338.296M513.627 206.15L515.727 191.385M513.627 206.15L511.424 221.632M513.627 206.15H604.443M515.727 191.385H604.443M338.296 191.385H249.581M338.296 191.385L344.313 177.287M604.443 191.385V206.15M344.313 177.287H257.603M511.424 221.632L509.112 237.884M511.424 221.632H604.443M604.443 206.15V221.632M604.443 221.632V237.884M413.78 237.884L408.921 254.964M413.78 237.884H509.112M413.78 237.884H318.45M509.112 237.884L506.683 254.964M509.112 237.884H604.443M604.443 237.884V254.964M408.921 254.964H506.683M408.921 254.964H311.16M504.125 272.937L506.683 254.964M504.125 272.937L501.431 291.876M504.125 272.937H604.443M506.683 254.964H604.443M311.16 254.964H213.399M311.16 254.964L318.45 237.884M604.443 254.964V272.937M318.45 237.884H223.119M501.431 291.876L498.587 311.862M501.431 291.876H604.443M604.443 272.937V291.876M604.443 291.876V311.862M392.732 311.862L386.722 332.98M392.732 311.862H498.587M392.732 311.862H286.875M498.587 311.862L495.582 332.98M498.587 311.862H604.443M604.443 311.862V332.98M386.722 332.98H495.582M386.722 332.98H277.862M492.403 355.334L495.582 332.98M492.403 355.334L489.03 379.031M492.403 355.334H604.443M495.582 332.98H604.443M277.862 332.98H169.001M277.862 332.98L286.875 311.862M604.443 332.98V355.334M286.875 311.862H181.019M489.03 379.031L485.45 404.201M489.03 379.031H604.443M604.443 355.334V379.031M604.443 379.031V404.201M366.457 404.201L358.837 430.982M366.457 404.201H485.45M366.457 404.201H247.464M485.45 404.201L481.64 430.982M485.45 404.201H604.443M604.443 404.201V430.982M358.837 430.982H481.64M358.837 430.982H236.034M477.578 459.534L481.64 430.982M477.578 459.534L473.238 490.04M477.578 459.534H604.443M481.64 430.982H604.443M236.034 430.982H113.23M236.034 430.982L247.464 404.201M604.443 430.982V459.534M247.464 404.201H128.47M473.238 490.04L468.589 522.707M473.238 490.04H604.443M604.443 459.534V490.04M604.443 490.04V522.707M332.737 522.707L322.759 557.774M332.737 522.707H468.589M332.737 522.707H196.884M468.589 522.707L463.601 557.774M468.589 522.707H604.443M604.443 522.707V557.774M322.759 557.774H463.601M322.759 557.774H181.917M458.231 595.513L463.601 557.774M458.231 595.513L452.437 636.246M458.231 595.513H604.443M463.601 557.774H604.443M181.917 557.774H41.075M181.917 557.774L196.884 522.707M604.443 557.774V595.513M196.884 522.707H61.0303M452.437 636.246L446.163 680.34M452.437 636.246H604.443M604.443 595.513V636.246M604.443 636.246V680.34M287.884 680.34L274.257 728.229M287.884 680.34H446.163M287.884 680.34H129.604M446.163 680.34L439.35 728.229M446.163 680.34H604.443M604.443 680.34V728.229M274.257 728.229H439.35M274.257 728.229H109.164M431.924 780.428L439.35 728.229M431.924 780.428L423.798 837.543M431.924 780.428H604.443M439.35 728.229H604.443M109.164 728.229H-55.929M109.164 728.229L129.604 680.34M604.443 728.229V780.428M129.604 680.34H-28.6752M423.798 837.543L414.868 900.305M423.798 837.543H604.443M604.443 780.428V837.543M604.443 837.543V900.305M225.295 900.305L205.579 969.595M225.295 900.305H414.868M225.295 900.305H35.7198M414.868 900.305L405.01 969.595M414.868 900.305H604.443M604.443 900.305V969.595M405.01 969.595H205.579M405.01 969.595H604.443M205.579 969.595H6.14614M6.14614 969.595H-193.287M6.14614 969.595L35.7198 900.305M35.7198 900.305H-153.855M195.211 47.2226L191.54 51.5238L187.802 55.9028M195.211 47.2226H263.416M195.211 47.2226H127.006M269.375 38.8455L275.129 30.7563M269.375 38.8455L263.416 47.2226M269.375 38.8455H336.389M275.129 30.7563H340.992M275.129 30.7563L279.316 24.8698L280.689 22.9411M215.938 22.9411H280.689M215.938 22.9411L218.383 20.0778L222.388 15.3845M215.938 22.9411H151.188M263.416 47.2226L257.242 55.9028M263.416 47.2226H331.621M336.389 38.8455L340.992 30.7563M336.389 38.8455L331.621 47.2226M340.992 30.7563L343.235 26.8153L344.893 23.9034L345.439 22.9411M280.689 22.9411H345.439M280.689 22.9411L284.737 17.2493L286.064 15.3845M331.621 47.2226L327.933 53.7028L326.682 55.9028M410.191 22.9411L410.599 21.9815L411.412 20.0778L412.619 17.2493L413.416 15.3845M410.191 22.9411H345.439M345.439 22.9411L345.985 21.9815L347.069 20.0778L349.739 15.3845M187.802 55.9028H257.242M187.802 55.9028H118.36M250.839 64.9028L251.653 63.7597L252.462 62.6208L255.663 58.1208L257.242 55.9028M250.839 64.9028L245.88 71.8726L244.196 74.2408M250.839 64.9028H321.561M257.242 55.9028H326.682M118.36 55.9028H48.9204M118.36 55.9028L124.873 49.3627L127.006 47.2226M326.682 55.9028L321.561 64.9028M127.006 47.2226H58.7995M244.196 74.2408L243.349 75.4326L242.496 76.6299L239.917 80.258L239.048 81.4775L237.3 83.9361M244.196 74.2408H316.245M321.561 64.9028L320.906 66.0501L316.245 74.2408M316.245 74.2408L315.568 75.4326L314.885 76.6299L314.201 77.8341L310.728 83.9361M163.871 83.9361L155.271 94.0111M163.871 83.9361H237.3M163.871 83.9361H90.4425M237.3 83.9361L230.133 94.0111M237.3 83.9361H310.728M310.728 83.9361L304.995 94.0111M155.271 94.0111H230.133M155.271 94.0111H80.409M222.681 104.487L230.133 94.0111M222.681 104.487L214.927 115.388M222.681 104.487H299.033M230.133 94.0111H304.995M80.409 94.0111H5.54697M80.409 94.0111L90.4425 83.9361M304.995 94.0111L299.033 104.487M90.4425 83.9361H17.0125M214.927 115.388L206.851 126.741M214.927 115.388H292.83M299.033 104.487L297.505 107.171L292.83 115.388M292.83 115.388L290.438 119.59L288.008 123.858L286.368 126.741M127.332 126.741L122.333 132.595L117.23 138.575M127.332 126.741H206.851M127.332 126.741H47.8127M206.851 126.741L198.432 138.575M206.851 126.741H286.368M286.368 126.741L279.635 138.575M117.23 138.575H198.432M117.23 138.575H36.0286M189.65 150.921L198.432 138.575M189.65 150.921L180.479 163.812M189.65 150.921H272.608M198.432 138.575H279.635M36.0286 138.575H-45.1746M36.0286 138.575L47.8127 126.741M279.635 138.575L272.608 150.921M47.8127 126.741H-31.7048M180.479 163.812L178.123 167.124L170.895 177.287M180.479 163.812H265.272M272.608 150.921L265.272 163.812M265.272 163.812L264.332 165.464L261.481 170.474L257.603 177.287M84.1851 177.287L72.1502 191.385M84.1851 177.287H170.895M84.1851 177.287H-2.52486M170.895 177.287L160.866 191.385M170.895 177.287H257.603M257.603 177.287L249.581 191.385M72.1502 191.385H160.866M72.1502 191.385H-16.5653M150.362 206.15L156.985 196.841L160.866 191.385M150.362 206.15L139.348 221.632M150.362 206.15H241.178M160.866 191.385H249.581M-16.5653 191.385H-105.281M-16.5653 191.385L-2.52486 177.287M249.581 191.385L241.178 206.15M-2.52486 177.287H-89.2348M139.348 221.632L127.788 237.884M139.348 221.632H232.368M241.178 206.15L232.368 221.632M232.368 221.632L223.119 237.884M32.4565 237.884L17.8764 254.964M32.4565 237.884H127.788M32.4565 237.884H-62.8734M127.788 237.884L115.638 254.964M127.788 237.884H223.119M223.119 237.884L213.399 254.964M17.8764 254.964H115.638M17.8764 254.964H-79.884M102.853 272.937L115.638 254.964M102.853 272.937L89.3802 291.876M102.853 272.937H203.171M115.638 254.964H213.399M-79.884 254.964H-177.644M-79.884 254.964L-62.8734 237.884M213.399 254.964L203.171 272.937M-62.8734 237.884H-158.205M89.3802 291.876L75.1642 311.862M89.3802 291.876H192.392M203.171 272.937L192.392 291.876M192.392 291.876L181.019 311.862M-30.6922 311.862L-48.7196 332.98M-30.6922 311.862H75.1642M-30.6922 311.862H-136.548M75.1642 311.862L60.1408 332.98M75.1642 311.862H181.019M181.019 311.862L169.001 332.98M-48.7196 332.98H60.1408M-48.7196 332.98H-157.58M44.2392 355.334L60.1408 332.98M44.2392 355.334L27.3817 379.031M44.2392 355.334H156.281M60.1408 332.98H169.001M-157.58 332.98H-266.44M-157.58 332.98L-136.548 311.862M169.001 332.98L156.281 355.334M-136.548 311.862H-242.403M27.3817 379.031L9.47741 404.201M27.3817 379.031H142.794M156.281 355.334L142.794 379.031M142.794 379.031L128.47 404.201M-109.516 404.201L-132.376 430.982M-109.516 404.201H9.47741M-109.516 404.201H-228.509M9.47741 404.201L-9.57271 430.982M9.47741 404.201H128.47M128.47 404.201L113.23 430.982M-132.376 430.982H-9.57271M-132.376 430.982H-255.179M-29.8834 459.534L-9.57271 430.982M-29.8834 459.534L-51.585 490.04M-29.8834 459.534H96.9819M-9.57271 430.982H113.23M-255.179 430.982H-377.982M-255.179 430.982L-228.509 404.201M113.23 430.982L96.9819 459.534M-228.509 404.201H-347.502M-51.585 490.04L-74.8219 522.707M-51.585 490.04H79.6215M96.9819 459.534L79.6215 490.04M79.6215 490.04L61.0303 522.707M-210.675 522.707L-240.609 557.774M-210.675 522.707H-74.8219M-210.675 522.707H-346.529M-74.8219 522.707L-99.7669 557.774M-74.8219 522.707H61.0303M61.0303 522.707L41.075 557.774M-240.609 557.774H-99.7669M-240.609 557.774H-381.451M-126.614 595.513L-99.7669 557.774M-126.614 595.513L-155.589 636.246M-126.614 595.513H19.5974M-99.7669 557.774H41.075M-381.451 557.774H-522.293M-381.451 557.774L-346.529 522.707M41.075 557.774L19.5974 595.513M-346.529 522.707H-482.382M-155.589 636.246L-186.955 680.34M-155.589 636.246H-3.5829M19.5974 595.513L-3.5829 636.246M-3.5829 636.246L-28.6752 680.34M-345.234 680.34L-386.115 728.229M-345.234 680.34H-186.955M-345.234 680.34H-503.514M-186.955 680.34L-221.022 728.229M-186.955 680.34H-28.6752M-28.6752 680.34L-55.929 728.229M-386.115 728.229H-221.022M-386.115 728.229H-551.208M-258.153 780.428L-221.022 728.229M-258.153 780.428L-298.783 837.543M-258.153 780.428H-85.6344M-221.022 728.229H-55.929M-551.208 728.229H-716.301M-551.208 728.229L-503.514 680.34M-55.929 728.229L-85.6344 780.428M-503.514 680.34H-661.793M-298.783 837.543L-343.428 900.305M-298.783 837.543H-118.137M-85.6344 780.428L-118.137 837.543M-118.137 837.543L-153.855 900.305M-533.003 900.305L-592.151 969.595M-533.003 900.305H-343.428M-533.003 900.305H-722.578M-343.428 900.305L-392.718 969.595M-343.428 900.305H-153.855M-153.855 900.305L-193.287 969.595M-392.718 969.595H-592.151M-392.718 969.595H-193.287M-592.151 969.595L-755.268 969.594M-722.578 900.305L-755.268 933.131M-722.578 900.305H-755.268M-77.6107 47.2226L-89.96 55.9028M-77.6107 47.2226H-9.40552M-77.6107 47.2226H-145.816M1.32052 38.8455L11.6785 30.7563M1.32052 38.8455L-9.40552 47.2226M1.32052 38.8455H68.3345M11.6785 30.7563H77.5408M11.6785 30.7563L21.6865 22.9411M-43.0656 22.9411H21.6865M-43.0656 22.9411L-38.9907 20.0778L-32.314 15.3845M-43.0656 22.9411H-107.816M-9.40552 47.2226L-20.5198 55.9028M-9.40552 47.2226H58.7995M68.3345 38.8455L77.5408 30.7563M68.3345 38.8455L58.7995 47.2226M77.5408 30.7563L84.2417 24.8698L86.437 22.9411M21.6865 22.9411L22.9131 21.9815L31.3617 15.3845M21.6865 22.9411H86.437M58.7995 47.2226L48.9204 55.9028M151.188 22.9411L158.713 15.3845M151.188 22.9411H86.437M86.437 22.9411L89.6961 20.0778L95.0372 15.3845M-89.96 55.9028H-20.5198M-89.96 55.9028H-159.4M-32.0435 64.9028L-20.5198 55.9028M-32.0435 64.9028L-44.0004 74.2408M-32.0435 64.9028H38.6772M-20.5198 55.9028H48.9204M-159.4 55.9028H-228.84M-159.4 55.9028L-145.816 47.2226M48.9204 55.9028L38.6772 64.9028M-145.816 47.2226H-214.021M-44.0004 74.2408L-47.0611 76.6299L-56.4162 83.9361M-44.0004 74.2408H28.0488M38.6772 64.9028L28.0488 74.2408M28.0488 74.2408L17.0125 83.9361M-129.845 83.9361L-131.605 85.1752L-144.177 94.0111M-129.845 83.9361H-56.4162M-129.845 83.9361H-203.273M-56.4162 83.9361L-69.315 94.0111M-56.4162 83.9361H17.0125M17.0125 83.9361L15.6046 85.1752L5.54697 94.0111M-144.177 94.0111H-69.315M-144.177 94.0111H-219.039M-82.7281 104.487L-69.315 94.0111M-82.7281 104.487L-96.6863 115.388M-82.7281 104.487H-6.37595M-69.315 94.0111H5.54697M-219.039 94.0111H-293.901M-219.039 94.0111L-203.273 83.9361M5.54697 94.0111L-6.37595 104.487M-203.273 83.9361H-276.702M-96.6863 115.388L-111.224 126.741M-96.6863 115.388H-18.7833M-6.37595 104.487L-18.7833 115.388M-18.7833 115.388L-31.7048 126.741M-190.741 126.741L-207.578 138.575M-190.741 126.741H-111.224M-190.741 126.741H-270.26M-111.224 126.741L-126.376 138.575M-111.224 126.741H-31.7048M-31.7048 126.741L-45.1746 138.575M-207.578 138.575H-126.376M-207.578 138.575H-288.781M-142.184 150.921L-126.376 138.575M-142.184 150.921L-158.692 163.812M-142.184 150.921H-59.2263M-126.376 138.575H-45.1746M-288.781 138.575H-369.982M-288.781 138.575L-270.26 126.741M-45.1746 138.575L-59.2263 150.921M-270.26 126.741H-349.779M-158.692 163.812L-175.945 177.287M-158.692 163.812H-73.8984M-59.2263 150.921L-73.8984 163.812M-73.8984 163.812L-89.2348 177.287M-262.655 177.287L-282.712 191.385M-262.655 177.287H-175.945M-262.655 177.287H-349.364M-175.945 177.287L-193.996 191.385M-175.945 177.287H-89.2348M-89.2348 177.287L-105.281 191.385M-282.712 191.385H-193.996M-282.712 191.385H-371.427M-212.903 206.15L-193.996 191.385M-212.903 206.15L-232.727 221.632M-212.903 206.15H-122.087M-193.996 191.385H-105.281M-371.427 191.385H-460.143M-371.427 191.385L-349.364 177.287M-105.281 191.385L-122.087 206.15M-349.364 177.287H-436.074M-232.727 221.632L-253.536 237.884M-232.727 221.632H-139.708M-122.087 206.15L-139.708 221.632M-139.708 221.632L-158.205 237.884M-348.867 237.884L-373.166 254.964M-348.867 237.884H-253.536M-348.867 237.884H-444.197M-253.536 237.884L-275.406 254.964M-253.536 237.884H-158.205M-158.205 237.884L-177.644 254.964M-373.166 254.964H-275.406M-373.166 254.964H-470.928M-298.421 272.937L-275.406 254.964M-298.421 272.937L-322.67 291.876M-298.421 272.937H-198.102M-275.406 254.964H-177.644M-470.928 254.964H-568.689M-470.928 254.964L-444.197 237.884M-177.644 254.964L-198.102 272.937M-444.197 237.884H-539.528M-322.67 291.876L-348.26 311.862M-322.67 291.876H-219.658M-198.102 272.937L-219.658 291.876M-219.658 291.876L-242.403 311.862M-454.116 311.862L-484.161 332.98M-454.116 311.862H-348.26M-454.116 311.862H-559.971M-348.26 311.862L-375.301 332.98M-348.26 311.862H-242.403M-242.403 311.862L-266.44 332.98M-484.161 332.98H-375.301M-484.161 332.98H-593.022M-403.923 355.334L-375.301 332.98M-403.923 355.334L-434.267 379.031M-403.923 355.334H-291.883M-375.301 332.98H-266.44M-593.022 332.98H-701.882M-593.022 332.98L-559.971 311.862M-266.44 332.98L-291.883 355.334M-559.971 311.862H-665.827M-434.267 379.031L-466.495 404.201M-434.267 379.031H-318.854M-291.883 355.334L-318.854 379.031M-318.854 379.031L-347.502 404.201M-585.488 404.201L-623.588 430.982M-585.488 404.201H-466.495M-585.488 404.201H-704.481M-466.495 404.201L-500.785 430.982M-466.495 404.201H-347.502M-347.502 404.201L-377.982 430.982M-623.588 430.982H-500.785M-623.588 430.982H-746.391M-537.346 459.534L-500.785 430.982M-537.346 459.534L-576.406 490.04M-537.346 459.534H-410.481M-500.785 430.982H-377.982M-746.391 430.982L-704.481 404.201M-746.391 430.982H-755.268M-746.391 430.982L-755.268 436.653M-377.982 430.982L-410.481 459.534M-704.481 404.201H-755.268M-576.406 490.04L-618.234 522.707M-576.406 490.04H-445.201M-410.481 459.534L-445.201 490.04M-445.201 490.04L-482.382 522.707M-754.088 522.707H-618.234M-754.088 522.707H-755.268M-754.088 522.707L-755.268 523.536M-618.234 522.707L-663.136 557.774M-618.234 522.707H-482.382M-482.382 522.707L-522.293 557.774M-711.46 595.513L-663.136 557.774M-711.46 595.513H-565.248M-711.46 595.513H-755.268M-711.46 595.513L-755.268 629.727M-663.136 557.774H-522.293M-663.136 557.774H-755.268M-522.293 557.774L-565.248 595.513M-565.248 595.513L-611.607 636.246M-611.607 636.246L-661.793 680.34M-611.607 636.246H-755.268M-661.793 680.34L-716.301 728.229M-661.793 680.34H-755.268M-716.301 728.229H-755.268M-716.301 728.229L-755.268 762.466M-350.432 47.2226L-367.72 55.9028M-350.432 47.2226H-282.226M-350.432 47.2226H-418.637M-266.734 38.8455L-251.773 30.7563M-266.734 38.8455L-282.226 47.2226M-266.734 38.8455H-199.72M-251.773 30.7563H-185.91M-251.773 30.7563L-237.317 22.9411M-302.068 22.9411H-237.317M-302.068 22.9411L-287.017 15.3845M-302.068 22.9411H-366.818M-282.226 47.2226L-298.28 55.9028M-282.226 47.2226H-214.021M-199.72 38.8455L-185.91 30.7563M-199.72 38.8455L-214.021 47.2226M-185.91 30.7563L-172.567 22.9411M-237.317 22.9411L-235.545 21.9815L-223.342 15.3845M-237.317 22.9411H-172.567M-214.021 47.2226L-228.84 55.9028M-107.816 22.9411L-95.9908 15.3845M-107.816 22.9411H-172.567M-172.567 22.9411L-170.931 21.9815L-159.666 15.3845M-367.72 55.9028H-298.28M-367.72 55.9028H-437.161M-314.927 64.9028L-298.28 55.9028M-314.927 64.9028L-332.198 74.2408M-314.927 64.9028H-244.205M-298.28 55.9028H-228.84M-437.161 55.9028H-506.601M-437.161 55.9028L-418.637 47.2226M-228.84 55.9028L-244.205 64.9028M-418.637 47.2226H-486.842M-332.198 74.2408L-350.131 83.9361M-332.198 74.2408H-260.149M-244.205 64.9028L-246.167 66.0501L-260.149 74.2408M-260.149 74.2408L-276.702 83.9361M-423.559 83.9361L-443.625 94.0111M-423.559 83.9361H-350.131M-423.559 83.9361H-496.988M-350.131 83.9361L-368.763 94.0111M-350.131 83.9361H-276.702M-276.702 83.9361L-293.901 94.0111M-443.625 94.0111H-368.763M-443.625 94.0111H-518.487M-388.137 104.487L-368.763 94.0111M-388.137 104.487L-408.299 115.388M-388.137 104.487H-311.785M-368.763 94.0111H-293.901M-518.487 94.0111H-593.349M-518.487 94.0111L-496.988 83.9361M-293.901 94.0111L-311.785 104.487M-496.988 83.9361H-570.416M-408.299 115.388L-429.297 126.741M-408.299 115.388H-330.396M-311.785 104.487L-330.396 115.388M-330.396 115.388L-349.779 126.741M-508.816 126.741L-532.387 138.575M-508.816 126.741H-429.297M-508.816 126.741H-588.335M-429.297 126.741L-451.184 138.575M-429.297 126.741H-349.779M-349.779 126.741L-369.982 138.575M-532.387 138.575H-451.184M-532.387 138.575H-613.589M-474.019 150.921L-451.184 138.575M-474.019 150.921L-497.862 163.812M-474.019 150.921H-391.059M-451.184 138.575H-369.982M-613.589 138.575H-694.79M-613.589 138.575L-588.335 126.741M-369.982 138.575L-391.059 150.921M-588.335 126.741H-667.853M-497.862 163.812L-522.784 177.287M-497.862 163.812H-413.07M-391.059 150.921L-413.07 163.812M-413.07 163.812L-436.074 177.287M-609.494 177.287L-637.573 191.385M-609.494 177.287H-522.784M-609.494 177.287H-696.202M-522.784 177.287L-548.858 191.385M-522.784 177.287H-436.074M-436.074 177.287L-460.143 191.385M-637.573 191.385H-548.858M-576.168 206.15L-548.858 191.385M-576.168 206.15L-604.802 221.632M-576.168 206.15H-485.351M-548.858 191.385H-460.143M-460.143 191.385L-485.351 206.15M-696.202 177.287H-755.268M-604.802 221.632L-634.86 237.884M-604.802 221.632H-511.783M-485.351 206.15L-511.783 221.632M-511.783 221.632L-539.528 237.884M-730.191 237.884H-634.86M-730.191 237.884H-755.268M-730.191 237.884L-755.268 250.474M-634.86 237.884L-666.45 254.964M-634.86 237.884H-539.528M-539.528 237.884L-568.689 254.964M-699.692 272.937L-666.45 254.964M-699.692 272.937L-734.721 291.876M-699.692 272.937H-599.374M-699.692 272.937H-755.268M-666.45 254.964H-568.689M-666.45 254.964H-755.268M-568.689 254.964L-599.374 272.937M-755.544 250.612L-755.268 250.474M-734.721 291.876H-631.708M-734.721 291.876H-755.268M-734.721 291.876L-755.268 302.986M-599.374 272.937L-631.708 291.876M-631.708 291.876L-665.827 311.862M-665.827 311.862L-701.882 332.98M-665.827 311.862H-755.268M-740.045 355.334L-701.882 332.98M-740.045 355.334H-755.268M-740.045 355.334L-755.268 364.25M-701.882 332.98H-755.268M-623.253 47.2226L-645.481 55.9028M-623.253 47.2226H-555.047M-623.253 47.2226H-691.459M-534.788 38.8455L-515.224 30.7563M-534.788 38.8455L-555.047 47.2226M-534.788 38.8455H-467.774M-515.224 30.7563H-449.361M-515.224 30.7563L-496.321 22.9411M-561.071 22.9411H-496.321M-561.071 22.9411L-541.721 15.3845M-561.071 22.9411H-625.822M-555.047 47.2226L-576.041 55.9028M-555.047 47.2226H-486.842M-467.774 38.8455L-449.361 30.7563M-467.774 38.8455L-486.842 47.2226M-449.361 30.7563L-431.57 22.9411M-496.321 22.9411H-431.57M-496.321 22.9411L-478.044 15.3845M-486.842 47.2226L-506.601 55.9028M-366.818 22.9411L-350.693 15.3845M-366.818 22.9411H-431.57M-431.57 22.9411L-414.368 15.3845M-645.481 55.9028H-576.041M-645.481 55.9028H-714.921M-597.809 64.9028L-576.041 55.9028M-597.809 64.9028L-620.394 74.2408M-597.809 64.9028H-527.088M-576.041 55.9028H-506.601M-714.921 55.9028L-691.459 47.2226M-714.921 55.9028H-755.268M-506.601 55.9028L-527.088 64.9028M-691.459 47.2226H-755.268M-620.394 74.2408L-643.845 83.9361M-620.394 74.2408H-548.345M-527.088 64.9028L-548.345 74.2408M-548.345 74.2408L-570.416 83.9361M-717.274 83.9361L-743.073 94.0111M-717.274 83.9361H-643.845M-717.274 83.9361H-755.268M-643.845 83.9361L-668.211 94.0111M-643.845 83.9361H-570.416M-570.416 83.9361L-593.349 94.0111M-693.547 104.487L-668.211 94.0111M-693.547 104.487L-719.912 115.388M-693.547 104.487H-617.195M-693.547 104.487H-755.268M-668.211 94.0111H-743.073M-668.211 94.0111H-593.349M-743.073 94.0111L-755.268 98.7726M-743.073 94.0111H-755.268M-593.349 94.0111L-617.195 104.487M-719.912 115.388L-747.371 126.741M-719.912 115.388H-642.01M-719.912 115.388H-755.268M-617.195 104.487L-642.01 115.388M-642.01 115.388L-667.853 126.741M-747.371 126.741H-667.853M-747.371 126.741L-755.268 130.005M-747.371 126.741H-755.268M-667.853 126.741L-694.79 138.575M-722.894 150.921L-694.79 138.575M-722.894 150.921L-752.24 163.812M-722.894 150.921H-755.268M-694.79 138.575H-755.268M-755.693 138.575H-755.268M-752.24 163.812H-755.268M-752.24 163.812L-755.268 165.142M-756 165.464L-755.268 165.142M-735.828 38.8455L-712.812 30.7563M-735.828 38.8455H-755.268M-735.828 38.8455L-755.268 45.677M-712.812 30.7563L-690.572 22.9411M-712.812 30.7563H-755.268M-625.822 22.9411L-605.396 15.3845M-625.822 22.9411H-690.572M-690.572 22.9411L-669.072 15.3845M-690.572 22.9411H-755.268M1495.9 15.3845H1559.58M1495.9 15.3845H1432.23M1543.98 8.07541L1547.83 9.88044L1559.58 15.3845M1543.98 8.07541H1606.62M1559.58 15.3845H1623.25M1606.62 8.07541L1610.72 9.88044L1612.79 10.7871L1623.25 15.3845M1623.25 15.3845H1686.93M1686.93 15.3845H1750.61M1432.23 15.3845H1368.55M1750.61 15.3845H1814.28M1814.28 15.3845L1794.52 8.07541M1814.28 15.3845H1877.96M1794.52 8.07541H1857.16M1241.2 15.3845H1304.88M1241.2 15.3845H1177.52M1293.44 8.07541L1296.26 9.88044L1297.68 10.7871L1304.88 15.3845M1293.44 8.07541H1356.07M1304.88 15.3845H1368.55M1356.07 8.07541L1368.55 15.3845M1177.52 15.3845H1113.85M986.497 15.3845H1050.17M986.497 15.3845H922.822M1042.89 8.07541L1043.79 8.97515L1044.69 9.88044L1045.6 10.7871L1050.17 15.3845M1042.89 8.07541H1105.53M1050.17 15.3845H1113.85M1105.53 8.07541L1113.85 15.3845M922.822 15.3845H859.145M731.794 15.3845H795.469M731.794 15.3845H668.118M792.35 8.07541L795.469 15.3845M792.35 8.07541H854.986M795.469 15.3845H859.145M854.986 8.07541L855.499 8.97515L856.013 9.88044L856.53 10.7871L859.145 15.3845M668.118 15.3845H604.443M477.092 15.3845H540.767M477.092 15.3845H413.416M541.807 8.07541L540.767 15.3845M541.807 8.07541H604.443M540.767 15.3845H604.443M604.443 8.07541V15.3845M413.416 15.3845H349.739M222.388 15.3845H286.064M222.388 15.3845H158.713M291.263 8.07541L289.98 9.88044L287.38 13.5336L286.064 15.3845M291.263 8.07541H353.899M286.064 15.3845H349.739M353.899 8.07541L353.386 8.97515L352.872 9.88044L352.355 10.7871L349.739 15.3845M158.713 15.3845H95.0372M-32.314 15.3845H31.3617M-32.314 15.3845H-95.9908M40.721 8.07541L38.4095 9.88044L37.2467 10.7871L31.3617 15.3845M40.721 8.07541H103.357M31.3617 15.3845H95.0372M103.357 8.07541L102.331 8.97515L95.0372 15.3845M-95.9908 15.3845H-159.666M-287.017 15.3845H-223.342M-287.017 15.3845H-350.693M-209.823 8.07541L-213.161 9.88044L-214.841 10.7871L-223.342 15.3845M-209.823 8.07541H-147.187M-223.342 15.3845H-159.666M-147.187 8.07541L-148.725 8.97515L-159.666 15.3845M-350.693 15.3845H-414.368M-541.721 15.3845H-478.044M-541.721 15.3845H-605.396M-460.366 8.07541L-478.044 15.3845M-460.366 8.07541H-397.73M-478.044 15.3845H-414.368M-397.73 8.07541L-401.838 9.88044L-403.906 10.7871L-414.368 15.3845M-605.396 15.3845H-669.072M-710.909 8.07541L-732.748 15.3845M-710.909 8.07541H-648.273M-710.909 8.07541H-755.268M-732.748 15.3845H-669.072M-732.748 15.3845L-755.268 22.9226M-732.748 15.3845H-755.268M-648.273 8.07541L-653.408 9.88044L-669.072 15.3845M1857.16 8.07541L1862.29 9.88044L1877.96 15.3845M1877.96 15.3845H1941.63M1941.63 15.3845L1964.15 22.9226M1941.63 15.3845H1964.15M1964.15 364.25V355.334M1964.15 364.25V379.031M1964.15 355.334V332.98M1964.15 379.031V383.448V404.201M1964.15 404.201V430.982M1964.15 191.385V177.287M1964.15 191.385V204.964M1964.15 8.07541V15.3845M1964.15 15.3845V22.9226M1964.15 22.9226L1964.21 22.9411H1964.15M1964.15 22.9226V22.9411M1964.15 22.9411V30.7563M1964.15 30.7563V38.8455M1964.15 38.8455V45.677M1964.15 45.677V47.2226M1964.15 47.2226V55.9028M1964.15 55.9028V64.9028M1964.15 64.9028V70.827M1964.15 70.827V74.2408M1964.15 74.2408V83.9361M1964.15 83.9361V94.0111M1964.15 94.0111V98.7726M1964.15 98.7726V104.487M1964.15 104.487V115.388M1964.15 115.388V126.741M1964.15 126.741V130.005M1964.15 130.005V138.575M1964.15 138.575V150.921M1964.15 150.921V163.812M1964.15 163.812V165.142M1964.15 165.142V177.287M1964.15 206.15V221.632M1964.15 206.15V204.964M1964.15 221.632V237.884M1964.15 237.884V250.474M1964.15 250.474V254.964M1964.15 254.964V272.937M1964.15 272.937V291.876M1964.15 291.876V302.986M1964.15 302.986V311.862M1964.15 311.862V332.98M1964.15 430.982V436.653M1964.15 436.653V459.534M1964.15 459.534V490.04M1964.15 490.04V522.707M1964.15 522.707V523.536M1964.15 523.536V557.774M1964.15 557.774V595.513M1964.15 595.513V629.727M1964.15 629.727V636.246M1964.15 636.246V680.34M1964.15 680.34V728.229M1964.15 728.229V762.466M1964.15 762.466V780.428M1964.15 780.428V837.543M1964.15 837.543V900.305M1964.15 900.305V933.131M1964.15 933.131V969.594M1964.15 969.594V969.842H-755.268V969.594M-755.268 206.15V221.632M-755.268 206.15V204.963M-755.268 204.963V191.385M-755.268 191.385V177.287M-755.268 177.287V165.142M-755.268 165.142V163.812M-755.268 163.812V150.921M-755.268 150.921V138.575M-755.268 138.575V130.005M-755.268 130.005V126.741M-755.268 126.741V115.388M-755.268 115.388V104.487M-755.268 104.487V98.7726M-755.268 98.7726V94.0111M-755.268 94.0111V83.9361M-755.268 83.9361V74.2408M-755.268 74.2408V70.827M-755.268 70.827V64.9028M-755.268 64.9028V55.9028M-755.268 55.9028V47.2226M-755.268 47.2226V45.677M-755.268 45.677V38.8455M-755.268 38.8455V30.7563M-755.268 30.7563V22.9411M-755.268 22.9411H-755.323L-755.268 22.9226M-755.268 22.9411V22.9226M-755.268 22.9226V15.3845M-755.268 15.3845V8.07541M-755.268 969.594V933.131M-755.268 933.131V900.305M-755.268 900.305V837.544M-755.268 837.544V780.428M-755.268 780.428V762.466M-755.268 762.466V728.229M-755.268 728.229V680.34M-755.268 680.34V636.246M-755.268 636.246V629.727M-755.268 629.727V595.513M-755.268 595.513V557.774M-755.268 557.774V523.536M-755.268 523.536V522.707M-755.268 522.707V490.04M-755.268 490.04V459.534M-755.268 459.534V436.653M-755.268 436.653V430.982M-755.268 430.982V404.201M-755.268 404.201V379.031M-755.268 379.031V364.25M-755.268 364.25V355.334M-755.268 355.334V332.98M-755.268 332.98V311.862M-755.268 311.862V302.986M-755.268 302.986V291.876M-755.268 291.876V272.937M-755.268 272.937V254.964M-755.268 254.964V250.474M-755.268 250.474V237.884M-755.268 237.884V221.632" stroke="url(#paint0_linear_28_73)" stroke-opacity="0.3" stroke-width="1.2" stroke-miterlimit="10" stroke-linecap="round" stroke-linejoin="round"/>
<defs>
<linearGradient id="paint0_linear_28_73" x1="604.443" y1="1" x2="604.443" y2="680.277" gradientUnits="userSpaceOnUse">
<stop offset="0.215"/>
<stop offset="1" stop-color="white"/>
</linearGradient>
</defs>
</svg>
