<svg width="40" height="40" viewBox="0 0 40 40" fill="none" xmlns="http://www.w3.org/2000/svg">
<path d="M31.75 22.375L29.1719 9.48626C29.1017 9.1356 28.9328 8.8123 28.685 8.5545C28.4371 8.2967 28.1208 8.11515 27.7731 8.03126L4.06562 1.80251C3.7533 1.727 3.42681 1.73302 3.11749 1.81999C2.80816 1.90696 2.52637 2.07197 2.29916 2.29917C2.07195 2.52638 1.90695 2.80817 1.81998 3.1175C1.73301 3.42683 1.72699 3.75331 1.8025 4.06564L8.03125 27.7731C8.11514 28.1208 8.29669 28.4372 8.55449 28.685C8.81229 28.9328 9.13559 29.1018 9.48625 29.1719L22.375 31.75M2.3125 2.31251L15.9738 15.9738M27.4506 37.9244C27.099 38.2759 26.6222 38.4734 26.125 38.4734C25.6278 38.4734 25.151 38.2759 24.7994 37.9244L21.8256 34.9506C21.4741 34.599 21.2766 34.1222 21.2766 33.625C21.2766 33.1278 21.4741 32.651 21.8256 32.2994L32.2994 21.8256C32.651 21.4741 33.1278 21.2767 33.625 21.2767C34.1222 21.2767 34.599 21.4741 34.9506 21.8256L37.9244 24.7994C38.2759 25.151 38.4734 25.6278 38.4734 26.125C38.4734 26.6222 38.2759 27.099 37.9244 27.4506L27.4506 37.9244ZM22.375 18.625C22.375 20.6961 20.6961 22.375 18.625 22.375C16.5539 22.375 14.875 20.6961 14.875 18.625C14.875 16.5539 16.5539 14.875 18.625 14.875C20.6961 14.875 22.375 16.5539 22.375 18.625Z" stroke="#FFE199" stroke-width="2.8125" stroke-linecap="round" stroke-linejoin="round"/>
</svg>
